<?xml version="1.0" encoding="utf-8"?>
<!-- Generator: Adobe Illustrator 16.0.0, SVG Export Plug-In . SVG Version: 6.00 Build 0)  -->
<!DOCTYPE svg PUBLIC "-//W3C//DTD SVG 1.1//EN" "http://www.w3.org/Graphics/SVG/1.1/DTD/svg11.dtd">
<svg version="1.1" id="Layer_1" xmlns="http://www.w3.org/2000/svg" xmlns:xlink="http://www.w3.org/1999/xlink" x="0px" y="0px"
	 width="60.625px" height="60.625px" viewBox="0 0 60.625 60.625" enable-background="new 0 0 60.625 60.625" xml:space="preserve">
<g>
	<path fill="#FFCD62" stroke="#474647" stroke-miterlimit="10" d="M30.312,0.5C13.873,0.5,0.5,13.874,0.5,30.313
		c0,16.439,13.373,29.813,29.812,29.813s29.813-13.373,29.813-29.813C60.125,13.874,46.75,0.5,30.312,0.5L30.312,0.5z
		 M30.312,51.487c-11.693,0-21.174-9.48-21.174-21.175s9.48-21.174,21.174-21.174c11.695,0,21.175,9.479,21.175,21.174
		S42.007,51.487,30.312,51.487L30.312,51.487z M30.312,51.487"/>
	<path fill="#474647" d="M30.312,11.88c-10.163,0-18.432,8.27-18.432,18.433c0,10.165,8.269,18.433,18.432,18.433
		c10.165,0,18.435-8.268,18.435-18.433C48.746,20.149,40.477,11.88,30.312,11.88L30.312,11.88z M46.386,29.138h-8.944
		c-0.183-1.131-0.63-2.173-1.273-3.064l6.314-6.313C44.697,22.312,46.125,25.565,46.386,29.138L46.386,29.138z M31.469,14.239
		c3.571,0.254,6.822,1.676,9.376,3.886l-6.312,6.313c-0.893-0.643-1.935-1.089-3.064-1.272V14.239z M29.156,14.239v8.926
		c-1.13,0.184-2.173,0.63-3.063,1.272l-6.314-6.313C22.333,15.915,25.585,14.493,29.156,14.239L29.156,14.239z M18.143,19.76
		l6.313,6.313c-0.645,0.892-1.09,1.934-1.271,3.063h-8.945C14.499,25.565,15.927,22.313,18.143,19.76L18.143,19.76z M14.237,31.451
		h8.947c0.182,1.13,0.629,2.172,1.273,3.063l-6.333,6.332C15.911,38.287,14.487,35.028,14.237,31.451L14.237,31.451z M29.156,46.387
		c-3.58-0.255-6.84-1.684-9.397-3.904l6.334-6.333c0.891,0.645,1.934,1.09,3.063,1.273V46.387z M29.156,35.043v0.017
		c-0.499-0.121-0.968-0.318-1.395-0.579l0.01-0.011c-0.667-0.408-1.228-0.968-1.634-1.636l-0.012,0.01
		c-0.261-0.426-0.457-0.895-0.58-1.394h0.018c-0.092-0.371-0.143-0.757-0.143-1.157c0-0.399,0.051-0.784,0.143-1.156h-0.018
		c0.123-0.498,0.319-0.967,0.58-1.394l0.012,0.011c0.406-0.668,0.967-1.228,1.634-1.636l-0.01-0.011
		c0.427-0.262,0.896-0.458,1.395-0.579v0.016c0.372-0.089,0.757-0.144,1.155-0.144c0.4,0,0.787,0.055,1.158,0.144v-0.016
		c0.498,0.121,0.967,0.317,1.394,0.579l-0.011,0.011c0.668,0.407,1.229,0.968,1.636,1.636l0.011-0.011
		c0.262,0.426,0.459,0.896,0.58,1.394h-0.017c0.089,0.372,0.144,0.759,0.144,1.156c0,0.4-0.055,0.786-0.144,1.158h0.017
		c-0.121,0.498-0.318,0.968-0.58,1.394l-0.011-0.011c-0.407,0.668-0.97,1.228-1.636,1.636l0.011,0.011
		c-0.427,0.261-0.896,0.458-1.394,0.579v-0.017c-0.371,0.09-0.758,0.144-1.158,0.144C29.913,35.187,29.528,35.134,29.156,35.043
		L29.156,35.043z M31.469,46.387v-8.964c1.13-0.184,2.172-0.629,3.064-1.273l6.332,6.333C38.31,44.703,35.05,46.132,31.469,46.387
		L31.469,46.387z M42.499,40.847l-6.33-6.332c0.645-0.892,1.09-1.934,1.272-3.063h8.946C46.138,35.028,44.714,38.287,42.499,40.847
		L42.499,40.847z M42.499,40.847"/>
</g>
</svg>
