<?xml version="1.0" encoding="utf-8"?>
<!-- Generator: Adobe Illustrator 16.0.0, SVG Export Plug-In . SVG Version: 6.00 Build 0)  -->
<!DOCTYPE svg PUBLIC "-//W3C//DTD SVG 1.1//EN" "http://www.w3.org/Graphics/SVG/1.1/DTD/svg11.dtd">
<svg version="1.1" id="Layer_1" xmlns="http://www.w3.org/2000/svg" xmlns:xlink="http://www.w3.org/1999/xlink" x="0px" y="0px"
	 width="77.405px" height="65.673px" viewBox="0 0 77.405 65.673" enable-background="new 0 0 77.405 65.673" xml:space="preserve">
<g>
	<path fill="#474647" d="M9.543,1H3.187C1.272,1,0,2.273,0,4.187v6.356c0,1.915,1.272,3.189,3.187,3.189h6.356
		c1.914,0,3.188-1.274,3.188-3.189V4.187C12.731,2.273,11.457,1,9.543,1L9.543,1z M9.543,1"/>
	<path fill="#474647" d="M9.543,26.461H3.187C1.272,26.461,0,27.738,0,29.65v6.374c0,1.912,1.272,3.187,3.187,3.187h6.356
		c1.914,0,3.188-1.274,3.188-3.187V29.65C12.731,27.738,11.457,26.461,9.543,26.461L9.543,26.461z M9.543,26.461"/>
	<path fill="#474647" d="M9.543,51.943H3.187C1.272,51.943,0,53.217,0,55.129v6.358c0,1.911,1.272,3.186,3.187,3.186h6.356
		c1.914,0,3.188-1.274,3.188-3.186v-6.358C12.731,53.217,11.457,51.943,9.543,51.943L9.543,51.943z M9.543,51.943"/>
	<path fill="#FFCD62" stroke="#474647" stroke-width="2" stroke-miterlimit="10" d="M73.218,1H28.65
		c-1.913,0-3.189,1.273-3.189,3.187v6.356c0,1.915,1.276,3.189,3.189,3.189h44.567c1.913,0,3.188-1.274,3.188-3.189V4.187
		C76.405,2.273,75.131,1,73.218,1L73.218,1z M73.218,1"/>
	<path fill="#FFCD62" stroke="#474647" stroke-width="2" stroke-miterlimit="10" d="M73.218,26.461H28.65
		c-1.913,0-3.189,1.277-3.189,3.189v6.374c0,1.912,1.276,3.187,3.189,3.187h44.567c1.913,0,3.188-1.274,3.188-3.187V29.65
		C76.405,27.738,75.131,26.461,73.218,26.461L73.218,26.461z M73.218,26.461"/>
	<path fill="#FFCD62" stroke="#474647" stroke-width="2" stroke-miterlimit="10" d="M73.218,51.943H28.65
		c-1.913,0-3.189,1.274-3.189,3.187v6.358c0,1.911,1.276,3.186,3.189,3.186h44.567c1.913,0,3.188-1.274,3.188-3.186v-6.358
		C76.405,53.217,75.131,51.943,73.218,51.943L73.218,51.943z M73.218,51.943"/>
</g>
</svg>
