<?xml version="1.0" encoding="utf-8"?>
<!-- Generator: Adobe Illustrator 16.0.0, SVG Export Plug-In . SVG Version: 6.00 Build 0)  -->
<!DOCTYPE svg PUBLIC "-//W3C//DTD SVG 1.1//EN" "http://www.w3.org/Graphics/SVG/1.1/DTD/svg11.dtd">
<svg version="1.1" id="Layer_1" xmlns="http://www.w3.org/2000/svg" xmlns:xlink="http://www.w3.org/1999/xlink" x="0px" y="0px"
	 width="84.359px" height="60.651px" viewBox="0 0 84.359 60.651" enable-background="new 0 0 84.359 60.651" xml:space="preserve">
<g>
	<g>
		<defs>
			<rect id="SVGID_1_" width="84.359" height="60.651"/>
		</defs>
		<clipPath id="SVGID_2_">
			<use xlink:href="#SVGID_1_"  overflow="visible"/>
		</clipPath>
		<path clip-path="url(#SVGID_2_)" fill="#FFCD62" stroke="#474647" stroke-width="1.5" stroke-miterlimit="10" d="M80.644,29.271
			c-0.393-1.102-1.423-1.846-2.592-1.873l-19.695-0.472l-13.01-4.851l1.811-4.853l0.107,0.041c0.326,0.121,0.658,0.179,0.987,0.179
			c1.146,0,2.224-0.704,2.649-1.84c0.543-1.462-0.199-3.088-1.661-3.633L38.323,7.901c-1.46-0.544-3.088,0.198-3.637,1.66
			c-0.543,1.464,0.199,3.089,1.661,3.634l0.223,0.083l-1.807,4.853l-13.043-4.86L15.376,1.487c-0.704-1.311-2.309-1.853-3.661-1.231
			L1.651,4.854c-0.769,0.352-1.34,1.027-1.558,1.845c-0.215,0.815-0.054,1.686,0.436,2.373l12.678,17.673L7.886,41.021
			c-0.261,0.702-0.234,1.479,0.078,2.16c0.31,0.681,0.881,1.212,1.581,1.475l37.5,13.977c0.322,0.12,0.656,0.179,0.988,0.179
			c0.664,0,1.321-0.235,1.842-0.684l29.953-25.764C80.712,31.601,81.039,30.371,80.644,29.271L80.644,29.271z M7.12,8.566
			l4.535-2.07l5.377,9.983l-1.447,3.885L7.12,8.566z M7.12,8.566"/>
	</g>
	<path fill="#474647" d="M80.074,43.684c-0.164-0.36-0.524-0.593-0.922-0.594c-0.398,0-0.76,0.232-0.922,0.594
		c-1.488,3.252-4.259,9.584-4.259,11.676c0,2.859,2.319,5.178,5.181,5.178c2.858,0,5.178-2.318,5.178-5.178
		C84.33,53.268,81.562,46.938,80.074,43.684L80.074,43.684z M80.074,43.684"/>
</g>
</svg>
