<?xml version="1.0" encoding="utf-8"?>
<!-- Generator: Adobe Illustrator 16.0.0, SVG Export Plug-In . SVG Version: 6.00 Build 0)  -->
<!DOCTYPE svg PUBLIC "-//W3C//DTD SVG 1.1//EN" "http://www.w3.org/Graphics/SVG/1.1/DTD/svg11.dtd">
<svg version="1.1" id="Layer_1" xmlns="http://www.w3.org/2000/svg" xmlns:xlink="http://www.w3.org/1999/xlink" x="0px" y="0px"
	 width="71.939px" height="61.508px" viewBox="0 0 71.939 61.508" enable-background="new 0 0 71.939 61.508" xml:space="preserve">
<g>
	<g>
		<path fill="#474647" d="M0,19.097L19.094,0l1.91,1.91L1.909,21.007L0,19.097z M3.379,22.479L22.473,3.382l1.909,1.909
			L5.289,24.388L3.379,22.479z M50.937,1.912l1.909-1.909l19.094,19.094l-1.908,1.911L50.937,1.912z M66.646,24.38L47.553,5.284
			l1.909-1.908L68.556,22.47L66.646,24.38z"/>
		<path fill="#FFCD62" stroke="#474647" stroke-miterlimit="10" d="M55.508,34.204l9.02-9.016L46.49,7.149l-9.018,9.018l6.492,6.493
			c-1.676,1.679-4.668,4.673-8.046,8.049c-3.377-3.378-6.37-6.37-8.048-8.049l6.496-6.493l-9.018-9.018L7.312,25.188l9.015,9.016
			l6.498-6.495c1.673,1.676,4.668,4.67,8.046,8.048c-5.359,5.357-10.523,10.523-12.202,12.202c-2.133-0.424-4.464,0.153-6.049,1.74
			c-1.252,1.249-1.943,2.915-1.943,4.679c0,1.772,0.691,3.438,1.943,4.686c1.248,1.247,2.914,1.944,4.682,1.944
			c1.765,0,3.431-0.691,4.681-1.944c1.648-1.648,2.234-3.965,1.773-6.092c1.727-1.728,6.854-6.854,12.166-12.167
			c5.312,5.313,10.439,10.437,12.164,12.167c-0.46,2.127,0.125,4.438,1.775,6.092c1.25,1.247,2.912,1.944,4.681,1.944
			s3.434-0.691,4.681-1.944c1.254-1.247,1.941-2.913,1.941-4.686c0-1.764-0.691-3.43-1.941-4.679
			c-1.586-1.587-3.912-2.164-6.051-1.74c-1.678-1.679-6.847-6.85-12.201-12.202c3.377-3.378,6.372-6.375,8.048-8.048L55.508,34.204z
			 M20.171,57.261c-1.541,1.54-4.219,1.54-5.76,0c-0.771-0.771-1.194-1.794-1.194-2.883c0-1.087,0.424-2.108,1.194-2.876
			c0.77-0.772,1.791-1.196,2.88-1.196c1.087,0,2.107,0.428,2.88,1.196C21.76,53.087,21.76,55.671,20.171,57.261z M57.414,51.502
			c0.771,0.771,1.193,1.794,1.193,2.876c0,1.09-0.423,2.112-1.193,2.883c-1.538,1.541-4.217,1.541-5.758,0
			c-1.589-1.589-1.589-4.174-0.002-5.763c0.77-0.769,1.793-1.191,2.88-1.191C55.623,50.31,56.644,50.737,57.414,51.502z"/>
	</g>
</g>
</svg>
