<?xml version="1.0" encoding="utf-8"?>
<!-- Generator: Adobe Illustrator 16.0.0, SVG Export Plug-In . SVG Version: 6.00 Build 0)  -->
<!DOCTYPE svg PUBLIC "-//W3C//DTD SVG 1.1//EN" "http://www.w3.org/Graphics/SVG/1.1/DTD/svg11.dtd">
<svg version="1.1" id="Layer_1" xmlns="http://www.w3.org/2000/svg" xmlns:xlink="http://www.w3.org/1999/xlink" x="0px" y="0px"
	 width="51.014px" height="58.3px" viewBox="0 0 51.014 58.3" enable-background="new 0 0 51.014 58.3" xml:space="preserve">
<g>
	<g>
		<path fill="#474647" d="M23.312,55.238c-1.005,0.079-1.871,0.063-2.068-0.029c-0.161-0.076,0.187-0.439,0.619-0.796
			c0.503-0.415,0.045-0.839-0.197-1.054c-0.813-0.723-1.583-1.507-2.31-2.344c-0.18-0.206-0.602-0.626-1.406-0.612
			c-1.278,0.022-2.896,0.078-3.1-0.018c-0.147-0.069,0.704-0.78,1.536-1.449c0.723-0.58,0.431-1.327,0.222-1.671
			c-0.67-1.101-1.273-2.26-1.814-3.471c-0.111-0.252-0.452-0.729-1.226-0.743c-1.214-0.018-2.593,0.065-2.781-0.022
			c-0.148-0.071,0.922-1.08,2-1.976c0.249-0.206,0.644-0.687,0.406-1.659c-0.339-1.402-0.716-2.817-0.946-4.288
			c-0.056-0.358-0.359-1.081-1.164-1.061c-1.102,0.033-2.214,0.047-2.382-0.032c-0.146-0.069,0.955-1.056,2.166-1.957
			c0.328-0.24,0.844-0.417,0.94-1.678c0.026-0.356-0.022-0.716-0.022-1.076c0-1.214,0.042-2.409,0.182-3.582
			c0.13-1.088-0.524-1.308-0.886-1.289c-1.11,0.056-2.236,0.112-2.4,0.033c-0.161-0.076,1.442-1.23,2.992-2.184
			c0.312-0.189,0.846-0.555,1.137-1.537c0.404-1.356,0.747-2.713,1.252-3.994c0.455-1.157-0.476-1.35-0.946-1.341
			c-1.195,0.022-2.169,0.085-2.359-0.002c-0.18-0.085,1.87-1.268,3.781-2.062c0.443-0.187,1.253-0.545,2.014-1.76
			c0.574-0.915,1.206-1.778,1.801-2.651c0.585-0.856-0.061-0.971-0.448-0.971c-1.472,0-2.752,0.114-2.975,0.007
			c-0.206-0.095,3.048-1.348,5.004-1.842c0.426-0.107,1.021-0.265,1.803-0.908c0.666-0.549,1.296-1.139,1.994-1.628
			c0.619-0.435,0.116-0.524-0.166-0.529c-1.624-0.022-3.102,0.119-3.344,0.005c-0.233-0.11,4.146-0.902,5.869-1.021
			C27.602,1.187,30.184,0.482,31.854,0c-0.432,0-0.799,0.002-0.939,0.014h-9.719c-0.548,0.069-2.887-0.031-3.311,0
			c-1.102,0.119-1.861,0.231-2.918,0.654c-0.694,0.281-0.921,1.176-0.448,1.366c0.524,0.211,2.522,0.904,2.279,1.027
			c-0.202,0.101-2.844,0-4.502-0.114c-0.659-0.048-1.574-0.105-1.96,0.175c-0.982,0.713-0.677,0.559-1.592,1.48
			C8.38,4.968,8.288,5.757,8.813,6.004c0.505,0.233,2.951,1.868,2.624,2.031c-0.28,0.142-3.691,0.382-4.525,0.303
			C6.086,8.262,5.651,8.31,5.328,8.769c-0.801,1.142-0.886,1.546-1.547,2.885c-0.263,0.528-0.24,1.479,0.159,1.684
			c0.398,0.202,2.283,1.099,3.431,2.057c-1.296-0.105-3.804,0.422-4.364,0.422S2,15.844,1.802,16.437
			c-0.504,1.502-0.597,2.072-0.919,3.657c-0.126,0.635,0.103,1.279,0.595,1.559c0.49,0.281,4.207,2.799,3.827,2.779
			c-0.63-0.036-3.884,0.738-4.375,0.746c-0.491,0.01-0.813,0.393-0.866,1.039c-0.101,1.209-0.053,1.209-0.053,2.444
			c0.002,0.444,0.008,0.888,0.021,1.325c0.021,0.644,0.597,1.343,1.135,1.597c0.736,0.351,4.511,2.205,4.174,2.375
			C5.063,34.098,1.65,34.519,1.3,34.53c-0.794,0.024-0.891,0.818-0.799,1.467c0.233,1.625,0.252,1.928,0.673,3.482
			c0.124,0.467,0.534,0.888,0.956,1.029c0.421,0.142,5.756,2.319,5.418,2.489c-0.28,0.142-3.479,0.752-3.983,0.773
			c-0.67,0.036-0.601,0.989-0.294,1.683c0.617,1.395,0.328,0.969,1.07,2.211c0.152,0.263,0.839,0.678,1.052,0.722
			c0.422,0.095,6.49,1.8,6.151,1.967c-0.28,0.142-3.523,0.299-4.124,0.333c-0.602,0.033-0.522,0.933-0.18,1.343
			c0.872,1.038,0.666,0.863,1.61,1.685c0.536,0.466,1.785,0.428,1.868,0.491c1.249,0.196,6.504,0.895,6.186,1.056
			c-0.28,0.142-2.219,0.354-4.066,0.574c-0.585-0.026-0.114,0.787,0.305,0.993c1.045,0.527,2.126,0.92,3.219,1.166
			c0.042,0.01,0.08,0.015,0.118,0.015c0.391,0,2.835,0.232,3.266,0.232c0.555,0,8.055,0.041,11.727,0.059
			c-2.139-0.619-4.995-1.561-6.972-2.778C24.334,55.42,23.908,55.189,23.312,55.238z"/>
	</g>
	<path fill="#FFCD62" stroke="#474647" stroke-miterlimit="10" d="M50.436,26.598c-0.037-0.627-0.359-1.074-0.816-1.035
		c-0.012,0.003-0.021,0.026-0.034,0.028c-0.065-0.764-0.146-1.522-0.261-2.269c0.012-0.002,0.02,0,0.029-0.003
		c0.399-0.165,0.639-0.79,0.531-1.398c-0.272-1.52-0.637-3.021-1.08-4.456c-0.17-0.576-1.078-0.813-1.078-0.813
		s-0.429-1.054-0.698-1.699c0.008-0.012,0.021-0.007,0.029-0.015c0.341-0.359,0.427-1.067,0.189-1.584
		c-0.595-1.298-1.272-2.525-2.005-3.65c-0.291-0.446-1.387-0.4-1.395-0.382c-0.1-0.166-0.446-0.605-0.848-1.084
		c0.011-0.019,0.023-0.007,0.031-0.027c0.244-0.512,0.164-1.225-0.172-1.59c-0.855-0.923-1.762-1.733-2.699-2.414
		c-0.378-0.271-2.016-0.03-2.016-0.03l-0.42-0.212c0.007-0.019,0.018-0.022,0.02-0.034c0.115-0.606-0.119-1.236-0.516-1.409
		c-1.004-0.426-2.039-0.726-3.084-0.885c-0.303-0.061-1.389-0.087-2.212-0.092c-1.604,0.553-3.147,1.311-4.608,2.262
		c1.41,0.167-1.777,2.41-1.533,1.096C24.87,5.62,23.993,6.42,23.164,7.299c1.351,0.13-1.161,3.314-1.573,1.839
		c-1.06,1.372-2.011,2.889-2.837,4.538c1.227-0.367-0.252,3.671-1.12,2.533c-0.685,1.756-1.23,3.641-1.622,5.642
		c1.143-0.42,0.603,3.261-0.427,2.731c-0.178,1.51-0.272,3.081-0.272,4.703c0,0.338,0.005,0.674,0.013,1.008
		c1.111-0.469,1.651,2.897,0.172,2.928c0.198,2.028,0.546,3.947,1.025,5.75c0.676-0.665,2.427,2.256,0.856,2.718
		c0.588,1.609,1.291,3.113,2.093,4.505c0.416-0.798,2.527,1.807,1.323,2.067c0.934,1.325,1.97,2.522,3.083,3.594
		c0.185-0.758,2.385,0.901,1.523,1.344c1.9,1.533,3.984,2.72,6.179,3.548c1.111,0.005,1.845,0.009,1.845,0.009
		c1.119-0.041,1.661-0.165,2.126-0.299c0.408-0.119,1.219-1.383,1.219-1.383s1.469-0.07,1.773-0.07c0.091,0,0.183-0.025,0.272-0.076
		c0.968-0.566,1.913-1.266,2.813-2.081c0.355-0.321,0.471-1.021,0.256-1.562c-0.006-0.012-0.017-0.012-0.019-0.024
		c0.423-0.423,0.508-0.526,0.911-1.003c0.004,0.014,0.688,0.086,0.9,0.086c0.172,0,0.35-0.092,0.488-0.276
		c0.791-1.029,1.53-2.171,2.193-3.396c0.261-0.485,0.219-1.199-0.102-1.601c-0.014-0.015-0.027-0.006-0.039-0.02
		c0.305-0.615,0.525-1.027,0.799-1.685c0.009,0.01,0.338-0.03,0.465-0.03c0.262,0,0.51-0.209,0.652-0.576
		c0.518-1.371,0.955-2.822,1.311-4.311c0.14-0.592-0.066-1.243-0.457-1.458c-0.006-0.003-0.014,0.004-0.02,0.002
		c0.152-0.731,0.271-1.476,0.381-2.23c0.01,0.003,0.012,0.019,0.021,0.021c0.046,0.011,0.09,0.016,0.13,0.016
		c0.363,0,0.68-0.394,0.743-0.945c0.177-1.553,0.269-3.145,0.269-4.733C50.51,28.271,50.486,27.428,50.436,26.598z M33.529,46.696
		c-5.786,0-10.477-7.855-10.477-17.54c0-9.689,4.691-17.542,10.477-17.542c5.789,0,10.475,7.853,10.475,17.542
		C44.004,38.839,39.318,46.696,33.529,46.696z"/>
</g>
</svg>
