<?xml version="1.0" encoding="utf-8"?>
<!-- Generator: Adobe Illustrator 16.0.0, SVG Export Plug-In . SVG Version: 6.00 Build 0)  -->
<!DOCTYPE svg PUBLIC "-//W3C//DTD SVG 1.1//EN" "http://www.w3.org/Graphics/SVG/1.1/DTD/svg11.dtd">
<svg version="1.1" id="Layer_1" xmlns="http://www.w3.org/2000/svg" xmlns:xlink="http://www.w3.org/1999/xlink" x="0px" y="0px"
	 width="61.744px" height="63.673px" viewBox="0 0 61.744 63.673" enable-background="new 0 0 61.744 63.673" xml:space="preserve">
<path d="M41.989,31.539"/>
<g>
	<g>
		<defs>
			<rect id="SVGID_1_" width="61.744" height="63.673"/>
		</defs>
		<clipPath id="SVGID_2_">
			<use xlink:href="#SVGID_1_"  overflow="visible"/>
		</clipPath>
		<path clip-path="url(#SVGID_2_)" fill="#474647" d="M57.613,17.364C49.089,2.598,30.208-2.467,15.443,6.064
			C0.678,14.582-4.387,33.468,4.145,48.236C12.662,63,31.55,68.057,46.316,59.532C61.081,51.007,66.138,32.129,57.613,17.364
			L57.613,17.364z M43.225,54.182c-11.811,6.821-26.915,2.771-33.736-9.037C2.668,33.334,6.715,18.23,18.526,11.409
			c11.811-6.821,26.923-2.774,33.736,9.036C59.083,32.257,55.036,47.361,43.225,54.182L43.225,54.182z"/>
		<path clip-path="url(#SVGID_2_)" fill="#FFCD62" stroke="#474647" stroke-width="2" stroke-miterlimit="10" d="M41.989,31.539
			l-16.167-9.427c-1.47-0.86-2.661-0.173-2.653,1.53l0.083,18.715c0.007,1.711,1.213,2.404,2.69,1.545l16.04-9.264
			C43.458,33.787,43.466,32.4,41.989,31.539L41.989,31.539z"/>
	</g>
</g>
</svg>
