<?xml version="1.0" encoding="utf-8"?>
<!-- Generator: Adobe Illustrator 16.0.0, SVG Export Plug-In . SVG Version: 6.00 Build 0)  -->
<!DOCTYPE svg PUBLIC "-//W3C//DTD SVG 1.1//EN" "http://www.w3.org/Graphics/SVG/1.1/DTD/svg11.dtd">
<svg version="1.1" id="Layer_1" xmlns="http://www.w3.org/2000/svg" xmlns:xlink="http://www.w3.org/1999/xlink" x="0px" y="0px"
	 width="68.699px" height="87.217px" viewBox="0 -0.125 68.699 87.217" enable-background="new 0 -0.125 68.699 87.217"
	 xml:space="preserve">
<g>
	<path fill="#434444" d="M53.439,67.387c0-0.535,0.113-1.072,0.337-1.563l0.009-0.02l0.009-0.021
		c0.173-0.354,0.411-0.681,0.71-0.979c0.455-0.455,0.972-0.765,1.55-0.929l0,0c0.324-0.092,0.667-0.138,1.031-0.138
		c1.01,0,1.795-0.038,2.356-0.112s0.991-0.262,1.291-0.562c0.299-0.299,0.486-0.729,0.561-1.291
		c0.075-0.561,0.112-1.347,0.112-2.356s0.355-1.869,1.066-2.58c1.42-1.42,3.742-1.42,5.162,0c0.71,0.711,1.066,1.57,1.066,2.58
		c0,1.011-0.355,1.871-1.066,2.582s-1.571,1.065-2.582,1.065c-1.01,0-1.795,0.037-2.356,0.111c-0.562,0.075-0.992,0.262-1.291,0.563
		c-0.299,0.299-0.486,0.729-0.561,1.289c-0.073,0.55-0.11,1.312-0.112,2.287v0.07c0,1.363-0.712,2.495-1.814,3.166
		c-0.559,0.316-1.181,0.479-1.833,0.48c-1.01,0-1.796,0.037-2.356,0.111c-0.561,0.075-0.991,0.264-1.291,0.563
		s-0.486,0.729-0.562,1.291c-0.074,0.561-0.112,1.346-0.112,2.355c0,1.008-0.355,1.871-1.065,2.582
		c-0.711,0.709-1.571,1.064-2.581,1.064c-1.01,0-1.87-0.355-2.581-1.064c-0.711-0.711-1.066-1.572-1.066-2.582
		c0-1.011,0.355-1.871,1.066-2.582c0.711-0.709,1.571-1.064,2.581-1.064c1.01,0,1.795-0.037,2.356-0.112s0.991-0.262,1.29-0.562
		c0.3-0.299,0.487-0.729,0.562-1.29C53.434,68.914,53.439,68.223,53.439,67.387z"/>
	<path fill="#FCB741" stroke="#434444" stroke-width="0.25" stroke-miterlimit="10" d="M53.439,51.451
		c0-1.01,0.355-1.87,1.066-2.581s1.571-1.066,2.581-1.066c1.01,0,1.87,0.355,2.581,1.066c0.711,0.71,1.066,1.571,1.066,2.581
		s-0.355,1.871-1.066,2.581c-0.711,0.711-1.571,1.065-2.581,1.065c-1.01,0-1.796,0.037-2.356,0.112
		c-0.561,0.074-0.991,0.263-1.291,0.562c-0.299,0.299-0.486,0.729-0.562,1.291c-0.074,0.561-0.112,1.347-0.112,2.354
		c0,1.011-0.355,1.871-1.065,2.582c-0.711,0.711-1.571,1.065-2.581,1.065c-1.01,0-1.87-0.354-2.581-1.065s-1.066-1.571-1.066-2.582
		c0-1.009,0.355-1.869,1.066-2.58s1.571-1.065,2.581-1.065c1.01,0,1.795-0.037,2.356-0.111c0.561-0.075,0.991-0.262,1.29-0.563
		c0.3-0.3,0.487-0.729,0.562-1.289C53.402,53.247,53.439,52.461,53.439,51.451L53.439,51.451z M53.439,59.418
		c0,1.012-0.038,1.797-0.112,2.357c-0.075,0.562-0.262,0.99-0.562,1.291c-0.299,0.299-0.729,0.485-1.29,0.561
		s-1.347,0.112-2.356,0.112c-1.009,0-1.87,0.354-2.581,1.065s-1.066,1.571-1.066,2.581c0,1.011,0.355,1.87,1.066,2.58
		c0.711,0.711,1.571,1.066,2.581,1.066c1.01,0,1.87-0.355,2.581-1.066c0.71-0.71,1.065-1.569,1.065-2.58
		c0-1.01,0.038-1.796,0.112-2.356c0.075-0.562,0.262-0.99,0.562-1.29c0.299-0.3,0.729-0.486,1.291-0.563
		c0.561-0.073,1.347-0.11,2.356-0.11c1.01,0,1.87-0.355,2.581-1.066s1.066-1.57,1.066-2.582c0-1.009-0.355-1.869-1.066-2.58
		s-1.571-1.066-2.581-1.066c-1.01,0-1.87,0.355-2.581,1.066S53.439,58.409,53.439,59.418L53.439,59.418z M45.528,83.32
		c0-1.01,0.355-1.869,1.066-2.58c0.711-0.71,1.571-1.066,2.581-1.066c1.01,0,1.87,0.356,2.581,1.066
		c0.71,0.711,1.065,1.57,1.065,2.58c0,1.011-0.355,1.871-1.065,2.582c-0.711,0.711-1.571,1.064-2.581,1.064L45.528,83.32z
		 M45.528,83.32c0,1.011,0.355,1.871,1.066,2.582c0.711,0.711,1.571,1.064,2.581,1.064L45.528,83.32L45.528,83.32z M44.798,35.516
		c0-1.01-0.355-1.87-1.066-2.581c-0.711-0.71-1.571-1.066-2.581-1.066c-1.01,0-1.87,0.355-2.582,1.066
		c-0.71,0.711-1.066,1.571-1.066,2.581c0,1.01,0.355,1.871,1.066,2.582c0.711,0.71,1.571,1.066,2.582,1.066
		c1.01,0,1.795,0.037,2.356,0.112c0.561,0.075,0.991,0.262,1.291,0.561c0.3,0.299,0.486,0.729,0.561,1.291
		c0.075,0.561,0.112,1.347,0.112,2.356c0,1.01,0.355,1.871,1.066,2.581c0.711,0.711,1.571,1.066,2.581,1.066
		c1.01,0,1.87-0.355,2.581-1.066c0.711-0.71,1.065-1.571,1.065-2.581c0-1.01-0.354-1.87-1.065-2.581
		c-0.711-0.711-1.571-1.066-2.581-1.066c-1.01,0-1.795-0.038-2.356-0.112c-1.084-0.145-1.708-0.768-1.852-1.851
		C44.835,37.312,44.798,36.526,44.798,35.516L44.798,35.516z M44.798,43.484c0-1.01-0.355-1.87-1.066-2.581
		c-0.711-0.711-1.571-1.066-2.581-1.066c-1.01,0-1.87,0.355-2.582,1.066c-0.71,0.711-1.066,1.571-1.066,2.581
		c0,1.01,0.355,1.871,1.066,2.581c0.711,0.711,1.571,1.066,2.582,1.066c1.01,0,1.795,0.038,2.356,0.112
		c0.561,0.074,0.991,0.262,1.291,0.561c0.3,0.299,0.486,0.729,0.561,1.291c0.075,0.562,0.112,1.346,0.112,2.356
		c0,1.009,0.355,1.869,1.066,2.581c0.711,0.711,1.571,1.065,2.581,1.065c1.01,0,1.87-0.354,2.581-1.065
		c0.711-0.712,1.065-1.571,1.065-2.581s-0.354-1.87-1.065-2.581c-0.711-0.71-1.571-1.066-2.581-1.066
		c-1.01,0-1.795-0.037-2.356-0.112c-0.561-0.074-0.991-0.262-1.291-0.561c-0.299-0.299-0.486-0.729-0.561-1.29
		C44.835,45.279,44.798,44.494,44.798,43.484L44.798,43.484z M53.439,11.614c0-1.01,0.355-1.87,1.066-2.581
		c0.711-0.71,1.571-1.066,2.581-1.066c1.01,0,1.87,0.355,2.581,1.066s1.066,1.571,1.066,2.581c0,1.01-0.355,1.871-1.066,2.581
		c-0.711,0.711-1.571,1.066-2.581,1.066c-1.01,0-1.796,0.037-2.356,0.112c-0.561,0.074-0.991,0.262-1.291,0.561
		c-0.299,0.299-0.486,0.729-0.562,1.291c-0.074,0.561-0.112,1.346-0.112,2.356c0,1.01-0.355,1.87-1.065,2.581
		c-0.711,0.71-1.571,1.066-2.581,1.066c-1.01,0-1.87-0.355-2.581-1.066s-1.066-1.571-1.066-2.581c0-1.01,0.355-1.871,1.066-2.581
		c0.711-0.711,1.571-1.066,2.581-1.066c1.01,0,1.795-0.038,2.356-0.112c1.084-0.146,1.708-0.768,1.852-1.853
		C53.401,13.41,53.439,12.624,53.439,11.614L53.439,11.614z M53.439,19.582c0,1.01-0.038,1.795-0.112,2.356
		c-0.074,0.561-0.262,0.991-0.562,1.291c-0.299,0.299-0.729,0.487-1.29,0.561c-0.561,0.075-1.347,0.112-2.356,0.112
		c-1.009,0-1.87,0.355-2.581,1.066c-0.711,0.711-1.066,1.571-1.066,2.581c0,1.01,0.355,1.87,1.066,2.581s1.571,1.066,2.581,1.066
		c1.01,0,1.87-0.355,2.581-1.066c0.71-0.711,1.065-1.571,1.065-2.581c0-1.01,0.038-1.795,0.112-2.357
		c0.075-0.561,0.262-0.991,0.562-1.29c0.299-0.299,0.729-0.486,1.291-0.562c0.561-0.074,1.347-0.112,2.356-0.112
		c1.01,0,1.87-0.355,2.581-1.066s1.066-1.571,1.066-2.581c0-1.01-0.355-1.871-1.066-2.581c-0.711-0.711-1.571-1.066-2.581-1.066
		c-1.01,0-1.87,0.355-2.581,1.066S53.439,18.572,53.439,19.582L53.439,19.582z M44.798,3.646c0-1.01-0.355-1.87-1.066-2.581
		C43.021,0.355,42.161,0,41.151,0c-1.01,0-1.87,0.355-2.582,1.066c-0.71,0.711-1.066,1.571-1.066,2.581
		c0,1.01,0.355,1.871,1.066,2.582c0.711,0.71,1.571,1.066,2.582,1.066c1.01,0,1.795,0.037,2.356,0.112
		c0.561,0.075,0.991,0.262,1.291,0.561c0.3,0.299,0.486,0.729,0.561,1.291c0.075,0.561,0.112,1.347,0.112,2.356
		c0,1.009,0.355,1.871,1.066,2.581c0.711,0.711,1.571,1.066,2.581,1.066c1.01,0,1.87-0.355,2.581-1.066
		c0.711-0.71,1.065-1.571,1.065-2.581c0-1.01-0.354-1.87-1.065-2.581c-0.711-0.711-1.571-1.066-2.581-1.066
		c-1.01,0-1.795-0.038-2.356-0.112c-1.084-0.145-1.708-0.768-1.852-1.852C44.835,5.442,44.798,4.657,44.798,3.646z M44.798,3.646
		c0-1.01-0.355-1.87-1.066-2.581C43.021,0.355,42.161,0,41.151,0c-1.01,0-1.87,0.355-2.582,1.066
		c-0.71,0.711-1.066,1.571-1.066,2.581c0,1.01,0.355,1.871,1.066,2.582c0.711,0.71,1.571,1.066,2.582,1.066
		c1.01,0,1.795,0.037,2.356,0.112c0.561,0.075,0.991,0.262,1.291,0.561c0.3,0.299,0.486,0.729,0.561,1.291
		c0.075,0.561,0.112,1.347,0.112,2.356c0,1.009,0.355,1.871,1.066,2.581c0.711,0.711,1.571,1.066,2.581,1.066
		c1.01,0,1.87-0.355,2.581-1.066c0.711-0.71,1.065-1.571,1.065-2.581c0-1.01-0.354-1.87-1.065-2.581
		c-0.711-0.711-1.571-1.066-2.581-1.066c-1.01,0-1.795-0.038-2.356-0.112c-1.084-0.145-1.708-0.768-1.852-1.852
		C44.835,5.442,44.798,4.657,44.798,3.646L44.798,3.646z M44.798,27.549c0,1.009,0.037,1.796,0.112,2.357
		c0.144,1.084,0.768,1.707,1.852,1.852c0.561,0.075,1.347,0.112,2.356,0.112c1.009,0,1.87,0.354,2.581,1.066
		c0.711,0.71,1.065,1.571,1.065,2.581c0,1.01-0.354,1.871-1.065,2.581c-0.711,0.711-1.571,1.066-2.581,1.066
		c-1.01,0-1.87-0.355-2.581-1.066c-0.71-0.71-1.066-1.571-1.066-2.581c0-1.01-0.037-1.795-0.112-2.356
		c-0.075-0.561-0.261-0.991-0.561-1.29c-0.299-0.3-0.729-0.487-1.291-0.562c-0.562-0.075-1.347-0.112-2.356-0.112
		c-1.01,0-1.87-0.356-2.582-1.066c-0.71-0.71-1.066-1.572-1.066-2.581c0-1.01,0.355-1.87,1.066-2.581
		c0.711-0.711,1.571-1.066,2.582-1.066c1.01,0,1.87,0.355,2.581,1.066C44.443,25.679,44.798,26.539,44.798,27.549z"/>
	<path fill="#434444" d="M7.494,84.143V58.132h3.726v-3.728H0v3.728h3.768v22.367c0,1.062,0.363,1.935,1.088,2.617
		S6.461,84.143,7.494,84.143L7.494,84.143z M14.905,59.682l0.042,24.492h3.726c0-2.004,0-3.74,0-5.744v-0.453
		c0-0.896,0.648-1.646,1.5-1.809c0.11-0.025,0.196-0.033,0.242-0.033l0.033,0.002c0.022-0.001,0.045-0.002,0.067-0.002l0,0
		c1.013,0,1.842,0.829,1.842,1.842v0.528v5.669h3.727V59.682c0-0.754-0.147-1.473-0.44-2.156c-0.293-0.685-0.691-1.276-1.193-1.779
		s-1.096-0.898-1.779-1.191c-0.684-0.295-1.403-0.44-2.156-0.44s-1.472,0.146-2.156,0.44c-0.684,0.293-1.277,0.688-1.779,1.191
		s-0.907,1.096-1.214,1.779C15.059,58.209,14.905,58.928,14.905,59.682L14.905,59.682z M18.673,69.867c0-3.168,0-6.337,0-9.506
		v-0.387c0-0.388,0.12-0.746,0.325-1.043c0.319-0.527,0.803-0.697,1.136-0.761c0.098-0.021,0.199-0.032,0.302-0.038l0.018-0.002
		c0,0,0.955-0.074,1.512,0.71c0.245,0.313,0.392,0.706,0.392,1.134v0.34c0,3.176,0,6.352,0,9.526v0.726
		c0,1.014-0.829,1.842-1.842,1.842l0,0h-0.032h-0.035c-0.171-0.002-0.444-0.035-0.726-0.18c-0.62-0.297-1.05-0.933-1.05-1.662
		V69.867L18.673,69.867z M41.617,54.405h-3.685v7.452c0,1.033-0.188,1.904-0.565,2.617c-0.377,0.711-0.803,1.066-1.277,1.066
		l-1.884,0.042V54.405h-3.727v29.769h3.727V69.311h1.884c0.475,0,0.9,0.355,1.277,1.067c0.376,0.712,0.565,1.584,0.565,2.616v11.18
		h3.685v-11.18c0-0.753-0.14-1.473-0.419-2.155c-0.279-0.685-0.458-1.125-0.892-1.78c-1.125-1.701-0.325-2.578,0.046-3.324
		c0.313-0.629,0.566-0.986,0.845-1.656c0.279-0.67,0.419-1.396,0.419-2.178L41.617,54.405L41.617,54.405z"/>
	<circle fill="#FFFFFF" cx="49.156" cy="75.393" r="1.955"/>
	<path fill="#A7A9AC" d="M49.156,73.607c0.986,0,1.787,0.8,1.787,1.785s-0.8,1.787-1.787,1.787c-0.987,0-1.787-0.802-1.787-1.787
		S48.169,73.607,49.156,73.607L49.156,73.607z M49.156,73.771c-0.895,0-1.621,0.727-1.621,1.621c0,0.896,0.726,1.621,1.621,1.621
		c0.895,0,1.621-0.727,1.621-1.621C50.776,74.498,50.051,73.771,49.156,73.771z"/>
	<circle fill="#FFFFFF" cx="57.037" cy="67.458" r="1.955"/>
	<path fill="#A7A9AC" d="M57.037,65.672c0.986,0,1.787,0.801,1.787,1.786s-0.8,1.786-1.787,1.786c-0.986,0-1.786-0.801-1.786-1.786
		S56.051,65.672,57.037,65.672L57.037,65.672z M57.037,65.838c-0.895,0-1.62,0.727-1.62,1.62s0.726,1.62,1.62,1.62
		c0.895,0,1.621-0.727,1.621-1.62S57.932,65.838,57.037,65.838z"/>
	<circle fill="#FFFFFF" cx="64.991" cy="59.474" r="1.954"/>
	<path fill="#A7A9AC" d="M64.991,57.854c0.895,0,1.621,0.726,1.621,1.619c0,0.896-0.726,1.621-1.621,1.621s-1.621-0.726-1.621-1.621
		C63.37,58.578,64.096,57.854,64.991,57.854L64.991,57.854z M64.991,57.688c-0.986,0-1.787,0.801-1.787,1.785
		c0,0.987,0.8,1.787,1.787,1.787c0.987,0,1.786-0.8,1.786-1.787C66.777,58.486,65.977,57.688,64.991,57.688z"/>
</g>
<circle fill="#FCB741" stroke="#434444" stroke-width="0.25" stroke-miterlimit="10" cx="49.118" cy="83.217" r="3.75"/>
</svg>
