<svg xmlns="http://www.w3.org/2000/svg" width="69" height="87" viewBox="0 -0.1 68.7 87.2"><path d="M53.4 67.4c0-0.5 0.1-1.1 0.3-1.6l0 0 0 0c0.2-0.4 0.4-0.7 0.7-1 0.5-0.5 1-0.8 1.6-0.9l0 0c0.3-0.1 0.7-0.1 1-0.1 1 0 1.8 0 2.4-0.1s1-0.3 1.3-0.6c0.3-0.3 0.5-0.7 0.6-1.3 0.1-0.6 0.1-1.3 0.1-2.4s0.4-1.9 1.1-2.6c1.4-1.4 3.7-1.4 5.2 0 0.7 0.7 1.1 1.6 1.1 2.6 0 1-0.4 1.9-1.1 2.6s-1.6 1.1-2.6 1.1c-1 0-1.8 0-2.4 0.1 -0.6 0.1-1 0.3-1.3 0.6 -0.3 0.3-0.5 0.7-0.6 1.3 -0.1 0.6-0.1 1.3-0.1 2.3v0.1c0 1.4-0.7 2.5-1.8 3.2 -0.6 0.3-1.2 0.5-1.8 0.5 -1 0-1.8 0-2.4 0.1 -0.6 0.1-1 0.3-1.3 0.6s-0.5 0.7-0.6 1.3c-0.1 0.6-0.1 1.3-0.1 2.4 0 1-0.4 1.9-1.1 2.6 -0.7 0.7-1.6 1.1-2.6 1.1 -1 0-1.9-0.4-2.6-1.1 -0.7-0.7-1.1-1.6-1.1-2.6 0-1 0.4-1.9 1.1-2.6 0.7-0.7 1.6-1.1 2.6-1.1 1 0 1.8 0 2.4-0.1s1-0.3 1.3-0.6c0.3-0.3 0.5-0.7 0.6-1.3C53.4 68.9 53.4 68.2 53.4 67.4z" fill="#434444"/><path d="M53.4 51.5c0-1 0.4-1.9 1.1-2.6s1.6-1.1 2.6-1.1c1 0 1.9 0.4 2.6 1.1 0.7 0.7 1.1 1.6 1.1 2.6s-0.4 1.9-1.1 2.6c-0.7 0.7-1.6 1.1-2.6 1.1 -1 0-1.8 0-2.4 0.1 -0.6 0.1-1 0.3-1.3 0.6 -0.3 0.3-0.5 0.7-0.6 1.3 -0.1 0.6-0.1 1.3-0.1 2.4 0 1-0.4 1.9-1.1 2.6 -0.7 0.7-1.6 1.1-2.6 1.1 -1 0-1.9-0.4-2.6-1.1s-1.1-1.6-1.1-2.6c0-1 0.4-1.9 1.1-2.6s1.6-1.1 2.6-1.1c1 0 1.8 0 2.4-0.1 0.6-0.1 1-0.3 1.3-0.6 0.3-0.3 0.5-0.7 0.6-1.3C53.4 53.2 53.4 52.5 53.4 51.5L53.4 51.5zM53.4 59.4c0 1 0 1.8-0.1 2.4 -0.1 0.6-0.3 1-0.6 1.3 -0.3 0.3-0.7 0.5-1.3 0.6s-1.3 0.1-2.4 0.1c-1 0-1.9 0.4-2.6 1.1s-1.1 1.6-1.1 2.6c0 1 0.4 1.9 1.1 2.6 0.7 0.7 1.6 1.1 2.6 1.1 1 0 1.9-0.4 2.6-1.1 0.7-0.7 1.1-1.6 1.1-2.6 0-1 0-1.8 0.1-2.4 0.1-0.6 0.3-1 0.6-1.3 0.3-0.3 0.7-0.5 1.3-0.6 0.6-0.1 1.3-0.1 2.4-0.1 1 0 1.9-0.4 2.6-1.1s1.1-1.6 1.1-2.6c0-1-0.4-1.9-1.1-2.6s-1.6-1.1-2.6-1.1c-1 0-1.9 0.4-2.6 1.1S53.4 58.4 53.4 59.4L53.4 59.4zM45.5 83.3c0-1 0.4-1.9 1.1-2.6 0.7-0.7 1.6-1.1 2.6-1.1 1 0 1.9 0.4 2.6 1.1 0.7 0.7 1.1 1.6 1.1 2.6 0 1-0.4 1.9-1.1 2.6 -0.7 0.7-1.6 1.1-2.6 1.1L45.5 83.3zM45.5 83.3c0 1 0.4 1.9 1.1 2.6 0.7 0.7 1.6 1.1 2.6 1.1L45.5 83.3 45.5 83.3zM44.8 35.5c0-1-0.4-1.9-1.1-2.6 -0.7-0.7-1.6-1.1-2.6-1.1 -1 0-1.9 0.4-2.6 1.1 -0.7 0.7-1.1 1.6-1.1 2.6 0 1 0.4 1.9 1.1 2.6 0.7 0.7 1.6 1.1 2.6 1.1 1 0 1.8 0 2.4 0.1 0.6 0.1 1 0.3 1.3 0.6 0.3 0.3 0.5 0.7 0.6 1.3 0.1 0.6 0.1 1.3 0.1 2.4 0 1 0.4 1.9 1.1 2.6 0.7 0.7 1.6 1.1 2.6 1.1 1 0 1.9-0.4 2.6-1.1 0.7-0.7 1.1-1.6 1.1-2.6 0-1-0.4-1.9-1.1-2.6 -0.7-0.7-1.6-1.1-2.6-1.1 -1 0-1.8 0-2.4-0.1 -1.1-0.1-1.7-0.8-1.9-1.9C44.8 37.3 44.8 36.5 44.8 35.5L44.8 35.5zM44.8 43.5c0-1-0.4-1.9-1.1-2.6 -0.7-0.7-1.6-1.1-2.6-1.1 -1 0-1.9 0.4-2.6 1.1 -0.7 0.7-1.1 1.6-1.1 2.6 0 1 0.4 1.9 1.1 2.6 0.7 0.7 1.6 1.1 2.6 1.1 1 0 1.8 0 2.4 0.1 0.6 0.1 1 0.3 1.3 0.6 0.3 0.3 0.5 0.7 0.6 1.3 0.1 0.6 0.1 1.3 0.1 2.4 0 1 0.4 1.9 1.1 2.6 0.7 0.7 1.6 1.1 2.6 1.1 1 0 1.9-0.4 2.6-1.1 0.7-0.7 1.1-1.6 1.1-2.6s-0.4-1.9-1.1-2.6c-0.7-0.7-1.6-1.1-2.6-1.1 -1 0-1.8 0-2.4-0.1 -0.6-0.1-1-0.3-1.3-0.6 -0.3-0.3-0.5-0.7-0.6-1.3C44.8 45.3 44.8 44.5 44.8 43.5L44.8 43.5zM53.4 11.6c0-1 0.4-1.9 1.1-2.6 0.7-0.7 1.6-1.1 2.6-1.1 1 0 1.9 0.4 2.6 1.1s1.1 1.6 1.1 2.6c0 1-0.4 1.9-1.1 2.6 -0.7 0.7-1.6 1.1-2.6 1.1 -1 0-1.8 0-2.4 0.1 -0.6 0.1-1 0.3-1.3 0.6 -0.3 0.3-0.5 0.7-0.6 1.3 -0.1 0.6-0.1 1.3-0.1 2.4 0 1-0.4 1.9-1.1 2.6 -0.7 0.7-1.6 1.1-2.6 1.1 -1 0-1.9-0.4-2.6-1.1s-1.1-1.6-1.1-2.6c0-1 0.4-1.9 1.1-2.6 0.7-0.7 1.6-1.1 2.6-1.1 1 0 1.8 0 2.4-0.1 1.1-0.1 1.7-0.8 1.9-1.9C53.4 13.4 53.4 12.6 53.4 11.6L53.4 11.6zM53.4 19.6c0 1 0 1.8-0.1 2.4 -0.1 0.6-0.3 1-0.6 1.3 -0.3 0.3-0.7 0.5-1.3 0.6 -0.6 0.1-1.3 0.1-2.4 0.1 -1 0-1.9 0.4-2.6 1.1 -0.7 0.7-1.1 1.6-1.1 2.6 0 1 0.4 1.9 1.1 2.6s1.6 1.1 2.6 1.1c1 0 1.9-0.4 2.6-1.1 0.7-0.7 1.1-1.6 1.1-2.6 0-1 0-1.8 0.1-2.4 0.1-0.6 0.3-1 0.6-1.3 0.3-0.3 0.7-0.5 1.3-0.6 0.6-0.1 1.3-0.1 2.4-0.1 1 0 1.9-0.4 2.6-1.1s1.1-1.6 1.1-2.6c0-1-0.4-1.9-1.1-2.6 -0.7-0.7-1.6-1.1-2.6-1.1 -1 0-1.9 0.4-2.6 1.1S53.4 18.6 53.4 19.6L53.4 19.6zM44.8 3.6c0-1-0.4-1.9-1.1-2.6C43 0.4 42.2 0 41.2 0c-1 0-1.9 0.4-2.6 1.1 -0.7 0.7-1.1 1.6-1.1 2.6 0 1 0.4 1.9 1.1 2.6 0.7 0.7 1.6 1.1 2.6 1.1 1 0 1.8 0 2.4 0.1 0.6 0.1 1 0.3 1.3 0.6 0.3 0.3 0.5 0.7 0.6 1.3 0.1 0.6 0.1 1.3 0.1 2.4 0 1 0.4 1.9 1.1 2.6 0.7 0.7 1.6 1.1 2.6 1.1 1 0 1.9-0.4 2.6-1.1 0.7-0.7 1.1-1.6 1.1-2.6 0-1-0.4-1.9-1.1-2.6 -0.7-0.7-1.6-1.1-2.6-1.1 -1 0-1.8 0-2.4-0.1 -1.1-0.1-1.7-0.8-1.9-1.9C44.8 5.4 44.8 4.7 44.8 3.6zM44.8 3.6c0-1-0.4-1.9-1.1-2.6C43 0.4 42.2 0 41.2 0c-1 0-1.9 0.4-2.6 1.1 -0.7 0.7-1.1 1.6-1.1 2.6 0 1 0.4 1.9 1.1 2.6 0.7 0.7 1.6 1.1 2.6 1.1 1 0 1.8 0 2.4 0.1 0.6 0.1 1 0.3 1.3 0.6 0.3 0.3 0.5 0.7 0.6 1.3 0.1 0.6 0.1 1.3 0.1 2.4 0 1 0.4 1.9 1.1 2.6 0.7 0.7 1.6 1.1 2.6 1.1 1 0 1.9-0.4 2.6-1.1 0.7-0.7 1.1-1.6 1.1-2.6 0-1-0.4-1.9-1.1-2.6 -0.7-0.7-1.6-1.1-2.6-1.1 -1 0-1.8 0-2.4-0.1 -1.1-0.1-1.7-0.8-1.9-1.9C44.8 5.4 44.8 4.7 44.8 3.6L44.8 3.6zM44.8 27.5c0 1 0 1.8 0.1 2.4 0.1 1.1 0.8 1.7 1.9 1.9 0.6 0.1 1.3 0.1 2.4 0.1 1 0 1.9 0.4 2.6 1.1 0.7 0.7 1.1 1.6 1.1 2.6 0 1-0.4 1.9-1.1 2.6 -0.7 0.7-1.6 1.1-2.6 1.1 -1 0-1.9-0.4-2.6-1.1 -0.7-0.7-1.1-1.6-1.1-2.6 0-1 0-1.8-0.1-2.4 -0.1-0.6-0.3-1-0.6-1.3 -0.3-0.3-0.7-0.5-1.3-0.6 -0.6-0.1-1.3-0.1-2.4-0.1 -1 0-1.9-0.4-2.6-1.1 -0.7-0.7-1.1-1.6-1.1-2.6 0-1 0.4-1.9 1.1-2.6 0.7-0.7 1.6-1.1 2.6-1.1 1 0 1.9 0.4 2.6 1.1C44.4 25.7 44.8 26.5 44.8 27.5z" style="fill:#FCB741;stroke-width:0.3;stroke:#434444"/><path d="M7.5 84.1V58.1h3.7v-3.7H0v3.7h3.8v22.4c0 1.1 0.4 1.9 1.1 2.6S6.5 84.1 7.5 84.1L7.5 84.1zM14.9 59.7l0 24.5h3.7c0-2 0-3.7 0-5.7v-0.5c0-0.9 0.6-1.6 1.5-1.8 0.1 0 0.2 0 0.2 0l0 0c0 0 0 0 0.1 0l0 0c1 0 1.8 0.8 1.8 1.8v0.5 5.7h3.7V59.7c0-0.8-0.1-1.5-0.4-2.2 -0.3-0.7-0.7-1.3-1.2-1.8s-1.1-0.9-1.8-1.2c-0.7-0.3-1.4-0.4-2.2-0.4s-1.5 0.1-2.2 0.4c-0.7 0.3-1.3 0.7-1.8 1.2s-0.9 1.1-1.2 1.8C15.1 58.2 14.9 58.9 14.9 59.7L14.9 59.7zM18.7 69.9c0-3.2 0-6.3 0-9.5v-0.4c0-0.4 0.1-0.7 0.3-1 0.3-0.5 0.8-0.7 1.1-0.8 0.1 0 0.2 0 0.3 0l0 0c0 0 1-0.1 1.5 0.7 0.2 0.3 0.4 0.7 0.4 1.1v0.3c0 3.2 0 6.4 0 9.5v0.7c0 1-0.8 1.8-1.8 1.8l0 0h0 0c-0.2 0-0.4 0-0.7-0.2 -0.6-0.3-1-0.9-1-1.7V69.9L18.7 69.9zM41.6 54.4h-3.7v7.5c0 1-0.2 1.9-0.6 2.6 -0.4 0.7-0.8 1.1-1.3 1.1l-1.9 0V54.4h-3.7v29.8h3.7V69.3h1.9c0.5 0 0.9 0.4 1.3 1.1 0.4 0.7 0.6 1.6 0.6 2.6v11.2h3.7v-11.2c0-0.8-0.1-1.5-0.4-2.2 -0.3-0.7-0.5-1.1-0.9-1.8 -1.1-1.7-0.3-2.6 0-3.3 0.3-0.6 0.6-1 0.8-1.7 0.3-0.7 0.4-1.4 0.4-2.2L41.6 54.4 41.6 54.4z" fill="#434444"/><circle cx="49.2" cy="75.4" r="2" fill="#FFF"/><path d="M49.2 73.6c1 0 1.8 0.8 1.8 1.8s-0.8 1.8-1.8 1.8c-1 0-1.8-0.8-1.8-1.8S48.2 73.6 49.2 73.6L49.2 73.6zM49.2 73.8c-0.9 0-1.6 0.7-1.6 1.6 0 0.9 0.7 1.6 1.6 1.6 0.9 0 1.6-0.7 1.6-1.6C50.8 74.5 50.1 73.8 49.2 73.8z" fill="#A7A9AC"/><circle cx="57" cy="67.5" r="2" fill="#FFF"/><path d="M57 65.7c1 0 1.8 0.8 1.8 1.8s-0.8 1.8-1.8 1.8c-1 0-1.8-0.8-1.8-1.8S56.1 65.7 57 65.7L57 65.7zM57 65.8c-0.9 0-1.6 0.7-1.6 1.6s0.7 1.6 1.6 1.6c0.9 0 1.6-0.7 1.6-1.6S57.9 65.8 57 65.8z" fill="#A7A9AC"/><circle cx="65" cy="59.5" r="2" fill="#FFF"/><path d="M65 57.9c0.9 0 1.6 0.7 1.6 1.6 0 0.9-0.7 1.6-1.6 1.6s-1.6-0.7-1.6-1.6C63.4 58.6 64.1 57.9 65 57.9L65 57.9zM65 57.7c-1 0-1.8 0.8-1.8 1.8 0 1 0.8 1.8 1.8 1.8 1 0 1.8-0.8 1.8-1.8C66.8 58.5 66 57.7 65 57.7z" fill="#A7A9AC"/><circle cx="49.1" cy="83.2" r="3.8" style="fill:#FCB741;stroke-width:0.3;stroke:#434444"/></svg>
