<svg xmlns="http://www.w3.org/2000/svg" width="74" height="63" viewBox="0 0 74.2 63.2"><path d="M54.5 25.9c-10.9 0-19.7 7.8-19.7 18.7 0 5.2 2.1 10 5.8 13.4 3.6 3.3 8.6 5.2 13.9 5.2s10.2-1.8 13.9-5.2c3.8-3.4 5.8-8.2 5.8-13.4C74.2 33.8 65.3 25.9 54.5 25.9L54.5 25.9zM54.5 53c-4.6 0-8.4-3.8-8.4-8.4 0-4.6 3.8-8.4 8.4-8.4s8.4 3.8 8.4 8.4C62.9 49.3 59.1 53 54.5 53L54.5 53zM54.5 53" fill="#474647"/><defs><rect width="74.2" height="63.2"/></defs><clipPath><use xlink:href="#SVGID_1_"/></clipPath><path d="M13.9 36.1C6.3 36.1 0 42.4 0 50c0 3.7 1.5 7.1 4.1 9.5 2.6 2.4 6.1 3.7 9.8 3.7 3.8 0 7.2-1.3 9.8-3.7 2.7-2.4 4.1-5.8 4.1-9.5C27.9 42.4 21.6 36.1 13.9 36.1L13.9 36.1zM13.9 56c-3.3 0-5.9-2.7-5.9-5.9s2.7-5.9 5.9-5.9c3.3 0 5.9 2.7 5.9 5.9S17.2 56 13.9 56L13.9 56zM13.9 56" style="clip-path:url(#SVGID_2_);fill:#474647"/><path d="M39.1 29.7c4-3.8 9.5-5.8 15.3-5.8 3.9 0 7.7 0.9 11 2.7 0 0 0 0 0 0 0.3 0.2 0.7 0.3 1.1 0.3 0.9-0.1 1.5-0.9 1.4-1.7 0-0.2-1.5-16.7-1.8-20C65.8 0 62.1 0 60.7 0H39.1c-1.9 0-5.5 0-6.6 5.4 -0.6 3.1-2 9.5-3 14.4H14.8v-8.1c0-1.2-1-2.1-2.1-2.1 -1.2 0-2.1 1-2.1 2.1v8.1H6.9c-6.2 0-8.1 13.3-4.7 19.2 2.9-3.1 7.1-5.1 11.7-5.1 8.1 0 14.7 6 15.9 13.7h3.1c-0.2-1-0.2-2.1-0.2-3.1C32.7 38.9 35 33.5 39.1 29.7L39.1 29.7zM63.1 5.4c0.2 2 0.8 9.3 1.3 14.5H51.1V3.2h9.6C62.2 3.2 62.9 3.3 63.1 5.4L63.1 5.4zM35.7 6.1c0.6-2.9 1.7-2.9 3.5-2.9h9.4v16.7H32.8C33.9 14.7 35.2 8.3 35.7 6.1L35.7 6.1zM35.7 6.1" style="clip-path:url(#SVGID_2_);fill:#FFCD62;stroke:#474647"/></svg>
