<?xml version="1.0" encoding="utf-8"?>
<!-- Generator: Adobe Illustrator 16.0.0, SVG Export Plug-In . SVG Version: 6.00 Build 0)  -->
<!DOCTYPE svg PUBLIC "-//W3C//DTD SVG 1.1//EN" "http://www.w3.org/Graphics/SVG/1.1/DTD/svg11.dtd">
<svg version="1.1" id="Layer_1" xmlns="http://www.w3.org/2000/svg" xmlns:xlink="http://www.w3.org/1999/xlink" x="0px" y="0px"
	 width="58.242px" height="64.003px" viewBox="0 0 58.242 64.003" enable-background="new 0 0 58.242 64.003" xml:space="preserve">
<g>
	<g>
		<defs>
			<rect id="SVGID_1_" width="58.242" height="64.003"/>
		</defs>
		<clipPath id="SVGID_2_">
			<use xlink:href="#SVGID_1_"  overflow="visible"/>
		</clipPath>
		<path clip-path="url(#SVGID_2_)" fill="#474647" d="M56.867,40.095c-1.367-0.781-2.063-3.51-1.531-6.051v-2.449
			c0-2.573-0.031-2.677-0.031-2.677c-0.563-2.594,0.125-5.386,1.521-6.188c1.406-0.792,1.469-3.344,0.146-5.656l-1.427-2.49
			c-1.323-2.313-3.563-3.552-4.979-2.74c-1.427,0.802-4.292,0.104-6.375-1.542l-4.5-2.594c-2.469-1.01-4.479-3.156-4.479-4.771
			S33.032,0,30.365,0h-2.802c-2.656,0-4.833,1.302-4.833,2.885c0,1.594-2.031,3.698-4.501,4.688l-4.708,2.573
			c-2.084,1.667-4.886,2.396-6.229,1.625c-1.344-0.761-3.521,0.5-4.844,2.813l-1.428,2.49C-0.302,19.386-0.313,21.897,1,22.647
			s1.906,3.489,1.333,6.083c0,0-0.052,0.229-0.052,2.854v2.532c0.552,2.604-0.042,5.334-1.333,6.072
			c-1.292,0.73-1.261,3.23,0.063,5.531l1.427,2.5c1.323,2.314,3.448,3.605,4.729,2.877c1.281-0.73,4.031,0.031,6.114,1.697
			l4.948,2.803c2.47,1,4.49,3.051,4.49,4.572s2.177,2.76,4.844,2.76h2.802c2.667,0,4.845-1.26,4.845-2.801
			c0-1.543,2.011-3.646,4.469-4.668l4.75-2.813c2.083-1.656,4.886-2.385,6.24-1.613c1.354,0.77,3.542-0.49,4.864-2.803l1.428-2.5
			C58.283,43.419,58.242,40.876,56.867,40.095L56.867,40.095z M28.709,48.501c-9.479,0-17.167-7.688-17.167-17.167
			c0-9.469,7.688-17.157,17.167-17.157c9.48,0,17.168,7.688,17.168,17.157C45.877,40.813,38.189,48.501,28.709,48.501L28.709,48.501
			z M28.709,48.501"/>
	</g>
	<path fill="#FFCD62" stroke="#474647" stroke-width="2" stroke-miterlimit="10" d="M36.043,31.168c0,3.958-3.208,7.157-7.156,7.157
		c-3.959,0-7.167-3.199-7.167-7.157c0-3.958,3.208-7.157,7.167-7.157C32.835,24.011,36.043,27.209,36.043,31.168L36.043,31.168z
		 M36.043,31.168"/>
</g>
</svg>
