<?xml version="1.0" encoding="utf-8"?>
<!-- Generator: Adobe Illustrator 16.0.0, SVG Export Plug-In . SVG Version: 6.00 Build 0)  -->
<!DOCTYPE svg PUBLIC "-//W3C//DTD SVG 1.1//EN" "http://www.w3.org/Graphics/SVG/1.1/DTD/svg11.dtd">
<svg version="1.1" id="Layer_1" xmlns="http://www.w3.org/2000/svg" xmlns:xlink="http://www.w3.org/1999/xlink" x="0px" y="0px"
	 width="67.52px" height="64.059px" viewBox="0 0 67.52 64.059" enable-background="new 0 0 67.52 64.059" xml:space="preserve">
<g>
	<g>
		<g>
			<defs>
				<rect id="SVGID_1_" x="0.509" y="0.45" width="66.503" height="63.608"/>
			</defs>
			<clipPath id="SVGID_2_">
				<use xlink:href="#SVGID_1_"  overflow="visible"/>
			</clipPath>
			<path clip-path="url(#SVGID_2_)" fill="#444444" d="M55.949,52.742V51.16c0-1.605-0.401-3.195-1.215-4.585
				c-3.798-6.499-9.191-12.267-16.043-17.35v-3.841c0-0.299-0.244-0.543-0.542-0.543h-5.637c-0.305,0-0.543,0.244-0.543,0.543v3.819
				h-6.435v-3.819c0-0.299-0.244-0.543-0.542-0.543H19.35c-0.299,0-0.542,0.244-0.542,0.543v3.819
				C11.944,34.298,6.546,40.065,2.743,46.575c-0.814,1.39-1.216,2.979-1.216,4.585v3.575c0,5.095,4.129,9.223,9.223,9.223h35.976
				c5.014,0,9.084-4.002,9.211-8.986 M38.163,51.256l-3.62-1.29c0.384-0.773,0.605-1.643,0.605-2.565
				c0-3.19-2.588-5.778-5.783-5.778c-3.19,0-5.784,2.588-5.784,5.778c0,3.195,2.594,5.783,5.784,5.783
				c1.181,0,2.278-0.355,3.193-0.963l1.985,3.264c-1.496,0.96-3.27,1.524-5.179,1.524c-5.307,0-9.604-4.303-9.604-9.608
				c0-5.301,4.297-9.604,9.604-9.604c5.306,0,9.607,4.303,9.607,9.604C38.974,48.772,38.681,50.074,38.163,51.256L38.163,51.256z"/>
		</g>
	</g>
</g>
<path fill="#FFCD64" stroke="#444444" stroke-miterlimit="10" d="M55.941,55.022c6.1-1.429,9.56-6.405,10.772-15.36
	c0.814-6.015,0.001-10.335-2.42-12.841l0,0c-0.865-0.896-1.81-1.421-2.666-1.73c1.174-6.826,0.958-10.641-26.809-19.382
	C6.562-3.188,3.4,0.5,1.073,7.893L0.676,9.154c-0.63,2.001,0.481,4.133,2.482,4.763l9.065,2.854c2.001,0.63,4.133-0.481,4.763-2.481
	l0.397-1.262c1.803-5.727,10.627-3.142,15.625-1.567c4.998,1.573,13.712,4.51,11.91,10.236l-0.397,1.261
	c-0.63,2.001,0.481,4.133,2.481,4.763l9.065,2.854c2.001,0.63,4.134-0.481,4.764-2.482l0.257-0.873
	c0.536,0.221,1.111,0.56,1.644,1.109c1.908,1.977,2.542,5.795,1.831,11.043c-1.232,9.093-4.805,12.341-8.61,13.421"/>
</svg>
