<?xml version="1.0" encoding="utf-8"?>
<!-- Generator: Adobe Illustrator 16.0.0, SVG Export Plug-In . SVG Version: 6.00 Build 0)  -->
<!DOCTYPE svg PUBLIC "-//W3C//DTD SVG 1.1//EN" "http://www.w3.org/Graphics/SVG/1.1/DTD/svg11.dtd">
<svg version="1.1" id="Layer_1" xmlns="http://www.w3.org/2000/svg" xmlns:xlink="http://www.w3.org/1999/xlink" x="0px" y="0px"
	 width="67.466px" height="60.736px" viewBox="0 0 67.466 60.736" enable-background="new 0 0 67.466 60.736" xml:space="preserve">
<g>
	<path fill="#FFCD62" stroke="#474647" stroke-width="0.5" stroke-miterlimit="10" d="M32.665,13.271v4.716
		c-0.005,2.439-7.259,4.416-16.21,4.416c-8.95,0-16.205-1.977-16.205-4.416v-4.716c0,2.439,7.255,4.421,16.205,4.421
		C25.406,17.692,32.665,15.711,32.665,13.271L32.665,13.271z M16.455,23.609c-8.95,0-16.205-1.981-16.205-4.421v4.716
		c0,2.439,7.255,4.416,16.205,4.416c8.951,0,16.205-1.977,16.21-4.416v-4.716C32.665,21.628,25.406,23.609,16.455,23.609
		L16.455,23.609z M16.455,29.559c-8.95,0-16.205-1.977-16.205-4.416v4.711c0,2.443,7.255,4.421,16.205,4.421
		c8.951,0,16.205-1.978,16.21-4.421v-4.711C32.665,27.582,25.406,29.559,16.455,29.559L16.455,29.559z M16.455,35.407
		c-8.95,0-16.205-1.977-16.205-4.416V35.7c0,2.446,7.255,4.423,16.205,4.423c8.951,0,16.205-1.977,16.21-4.423v-4.709
		C32.665,33.436,25.406,35.407,16.455,35.407L16.455,35.407z M16.455,41.188c-8.95,0-16.205-1.981-16.205-4.421v4.716
		c0,2.438,7.255,4.416,16.205,4.416c8.951,0,16.205-1.979,16.21-4.416v-4.716C32.665,39.207,25.406,41.188,16.455,41.188
		L16.455,41.188z M16.455,46.956c-8.95,0-16.205-1.977-16.205-4.421v4.716c0,2.439,7.255,4.416,16.205,4.416
		c8.951,0,16.205-1.977,16.21-4.416v-4.716C32.665,44.979,25.406,46.956,16.455,46.956L16.455,46.956z M34.904,13.584h0.119v0.123
		c2.566,0.467,5.653,0.738,8.973,0.738c8.951,0,16.205-1.977,16.21-4.416V5.314c0,2.439-7.259,4.42-16.21,4.42
		s-16.205-1.98-16.205-4.42v1.772c3.891,0.935,7.232,2.606,7.232,5.604C35.023,13.009,34.973,13.299,34.904,13.584L34.904,13.584z
		 M43.996,20.363c8.951,0,16.205-1.977,16.21-4.416V11.23c0,2.439-7.259,4.422-16.21,4.422c-3.319,0-6.406-0.277-8.973-0.744V18.3
		c-0.005,0.427-0.078,0.825-0.205,1.202h0.205v0.122C37.59,20.091,40.677,20.363,43.996,20.363L43.996,20.363z M35.023,25.455v0.122
		c2.566,0.468,5.653,0.739,8.973,0.739c8.951,0,16.205-1.977,16.21-4.421v-4.711c0,2.439-7.259,4.421-16.21,4.421
		c-3.319,0-6.406-0.277-8.973-0.744v3.355c-0.005,0.445-0.082,0.853-0.219,1.238H35.023z M60.206,27.301v-4.268
		c0,1.475-2.657,2.775-6.729,3.578C55.264,26.693,57.744,26.879,60.206,27.301L60.206,27.301z M35.023,29.613
		c1.572-1.07,3.922-1.769,6.352-2.223c-2.316-0.104-4.475-0.335-6.352-0.68V29.613z M51.01,38.056
		c-8.949,0-16.205-1.981-16.205-4.426v4.716c0,2.444,7.256,4.421,16.205,4.421c8.951,0,16.206-1.977,16.206-4.421V33.63
		C67.221,36.074,59.961,38.056,51.01,38.056L51.01,38.056z M51.01,43.971c-8.949,0-16.205-1.979-16.205-4.419v4.716
		c0,2.439,7.256,4.421,16.205,4.421c8.951,0,16.206-1.981,16.206-4.421v-4.716C67.221,41.991,59.961,43.971,51.01,43.971
		L51.01,43.971z M51.01,49.919c-8.949,0-16.205-1.975-16.205-4.418v4.715c0,2.439,7.256,4.421,16.205,4.421
		c8.951,0,16.206-1.981,16.206-4.421v-4.715C67.221,47.944,59.961,49.919,51.01,49.919L51.01,49.919z M51.01,55.775
		c-8.949,0-16.205-1.981-16.205-4.421v4.716c0,2.439,7.256,4.416,16.205,4.416c8.951,0,16.206-1.977,16.206-4.416v-4.716
		C67.221,53.794,59.961,55.775,51.01,55.775L51.01,55.775z M51.01,55.775"/>
	<path fill="#474647" d="M16.455,7.895c-8.95,0-16.205,1.982-16.205,4.422s7.255,4.42,16.205,4.42c8.951,0,16.21-1.98,16.21-4.42
		S25.406,7.895,16.455,7.895z M23.717,13.186l-9.594-0.653c0.066,0.241,0.008,0.521-0.174,0.849l-0.131,0.24l-2.635-0.181
		l0.136-0.236c0.427-0.762-0.493-0.984-1.218-1.088l-0.527-0.073l0.486-0.87l14.236,0.971L23.717,13.186z"/>
	<path fill="#474647" d="M44.085,8.842c8.95,0,16.205-1.982,16.205-4.422S53.035,0,44.085,0c-8.951,0-16.21,1.98-16.21,4.42
		S35.134,8.842,44.085,8.842z M36.823,3.551l9.594,0.653c-0.066-0.241-0.008-0.521,0.174-0.849l0.131-0.24l2.635,0.181l-0.136,0.236
		c-0.427,0.762,0.493,0.984,1.218,1.088l0.527,0.073l-0.486,0.87L36.243,4.593L36.823,3.551z"/>
	<path fill="#474647" d="M51.011,37.186c8.95,0,16.205-1.982,16.205-4.422s-7.255-4.42-16.205-4.42c-8.951,0-16.21,1.98-16.21,4.42
		S42.06,37.186,51.011,37.186z M43.749,31.895l9.594,0.653c-0.066-0.241-0.008-0.521,0.174-0.849l0.131-0.24l2.635,0.181
		l-0.136,0.236c-0.427,0.762,0.493,0.984,1.218,1.088l0.527,0.073l-0.486,0.87l-14.236-0.971L43.749,31.895z"/>
</g>
</svg>
