<?xml version="1.0" encoding="utf-8"?>
<!-- Generator: Adobe Illustrator 16.0.0, SVG Export Plug-In . SVG Version: 6.00 Build 0)  -->
<!DOCTYPE svg PUBLIC "-//W3C//DTD SVG 1.1//EN" "http://www.w3.org/Graphics/SVG/1.1/DTD/svg11.dtd">
<svg version="1.1" id="Layer_1" xmlns="http://www.w3.org/2000/svg" xmlns:xlink="http://www.w3.org/1999/xlink" x="0px" y="0px"
	 width="74.199px" height="63.229px" viewBox="0 0 74.199 63.229" enable-background="new 0 0 74.199 63.229" xml:space="preserve">
<g>
	<path fill="#474647" d="M54.475,25.92c-10.862,0-19.699,7.842-19.699,18.705c0,5.206,2.065,9.963,5.816,13.395
		c3.645,3.333,8.574,5.169,13.883,5.169s10.239-1.836,13.883-5.169c3.75-3.432,5.816-8.188,5.816-13.395
		C74.174,33.763,65.336,25.92,54.475,25.92L54.475,25.92z M54.475,53.017c-4.627,0-8.393-3.765-8.393-8.392
		c0-4.628,3.766-8.394,8.393-8.394s8.393,3.766,8.393,8.394C62.867,49.252,59.102,53.017,54.475,53.017L54.475,53.017z
		 M54.475,53.017"/>
	<g>
		<defs>
			<rect id="SVGID_1_" width="74.199" height="63.229"/>
		</defs>
		<clipPath id="SVGID_2_">
			<use xlink:href="#SVGID_1_"  overflow="visible"/>
		</clipPath>
		<path clip-path="url(#SVGID_2_)" fill="#474647" d="M13.947,36.099C6.256,36.099,0,42.355,0,50.045
			c0,3.686,1.462,7.054,4.119,9.484c2.58,2.359,6.069,3.659,9.828,3.659c3.758,0,7.249-1.3,9.827-3.659
			c2.656-2.431,4.119-5.799,4.119-9.484C27.893,42.355,21.637,36.099,13.947,36.099L13.947,36.099z M13.947,55.959
			c-3.262,0-5.914-2.653-5.914-5.914s2.652-5.914,5.914-5.914c3.261,0,5.914,2.653,5.914,5.914S17.208,55.959,13.947,55.959
			L13.947,55.959z M13.947,55.959"/>
		<path clip-path="url(#SVGID_2_)" fill="#FFCD62" stroke="#474647" stroke-miterlimit="10" d="M39.139,29.68
			c4.045-3.762,9.49-5.835,15.336-5.835c3.938,0,7.695,0.942,10.963,2.707c0.017,0.009,0.033,0.014,0.049,0.021
			c0.301,0.216,0.676,0.33,1.072,0.295c0.877-0.078,1.525-0.854,1.448-1.731c-0.016-0.167-1.493-16.744-1.772-19.996
			C65.793,0,62.078,0,60.68,0H39.14c-1.922-0.004-5.486-0.001-6.586,5.447c-0.619,3.067-1.981,9.52-3.032,14.448H14.8v-8.071
			c0-1.178-0.955-2.131-2.131-2.131c-1.177,0-2.131,0.955-2.131,2.131v8.071H6.944c-6.171,0-8.078,13.255-4.68,19.2
			c2.925-3.118,7.08-5.07,11.682-5.07c8.058,0,14.744,5.981,15.857,13.736h3.128c-0.152-1.024-0.231-2.07-0.231-3.135
			C32.701,38.85,34.987,33.542,39.139,29.68L39.139,29.68z M63.055,5.414c0.176,2.039,0.819,9.294,1.281,14.48H51.075V3.19h9.604
			C62.233,3.19,62.871,3.276,63.055,5.414L63.055,5.414z M35.682,6.078c0.583-2.888,1.669-2.887,3.456-2.888h9.384v16.704H32.783
			C33.892,14.686,35.241,8.256,35.682,6.078L35.682,6.078z M35.682,6.078"/>
	</g>
</g>
</svg>
