<?xml version="1.0" encoding="utf-8"?>
<!-- Generator: Adobe Illustrator 16.0.0, SVG Export Plug-In . SVG Version: 6.00 Build 0)  -->
<!DOCTYPE svg PUBLIC "-//W3C//DTD SVG 1.1//EN" "http://www.w3.org/Graphics/SVG/1.1/DTD/svg11.dtd">
<svg version="1.1" id="Layer_1" xmlns="http://www.w3.org/2000/svg" xmlns:xlink="http://www.w3.org/1999/xlink" x="0px" y="0px"
	 width="60.559px" height="61.359px" viewBox="0 0 60.559 61.359" enable-background="new 0 0 60.559 61.359" xml:space="preserve">
<g>
	<g>
		<g>
			<g>
				<defs>
					<rect id="SVGID_1_" y="0.612" width="60.559" height="60.747"/>
				</defs>
				<clipPath id="SVGID_2_">
					<use xlink:href="#SVGID_1_"  overflow="visible"/>
				</clipPath>
				<path clip-path="url(#SVGID_2_)" fill="#FFCD64" stroke="#444444" stroke-miterlimit="10" d="M1.643,50.92
					c-2.191,2.188-2.191,5.735,0,7.921c1.095,1.095,2.537,1.643,3.961,1.643c1.442,0,2.884-0.548,3.979-1.643l18.399-18.417
					l-7.922-7.918L1.643,50.92z"/>
			</g>
		</g>
		<g>
			<g>
				<defs>
					<rect id="SVGID_3_" y="0.612" width="60.559" height="60.747"/>
				</defs>
				<clipPath id="SVGID_4_">
					<use xlink:href="#SVGID_3_"  overflow="visible"/>
				</clipPath>
			</g>
		</g>
		<g>
			<g>
				<defs>
					<rect id="SVGID_5_" y="0.612" width="60.559" height="60.747"/>
				</defs>
				<clipPath id="SVGID_6_">
					<use xlink:href="#SVGID_5_"  overflow="visible"/>
				</clipPath>
			</g>
		</g>
	</g>
	<path fill="#FFCD64" stroke="#444444" stroke-miterlimit="10" d="M47.659,16.786l8.013-4.144l4.189-8.123l-3.896-3.907
		l-8.119,4.198l-4.146,8.014l-9.768,9.766l3.967,3.962L47.659,16.786z"/>
	<path fill="#444444" d="M49.412,38.068l-0.749-0.072c-1.369,0-2.665,0.273-3.888,0.729L21.758,15.709
		c0.456-1.225,0.73-2.521,0.73-3.889l-0.074-0.749C22.014,5.23,17.212,0.612,11.28,0.612c-1.734,0-3.359,0.42-4.819,1.114
		l7.447,7.466c0.397,0.383,0.676,0.857,0.84,1.332c0.493,1.331,0.237,2.883-0.84,3.942c-0.729,0.73-1.679,1.095-2.628,1.095
		c-0.456,0-0.895-0.091-1.296-0.256c-0.493-0.182-0.968-0.438-1.351-0.839L1.187,7.021c-0.712,1.459-1.132,3.084-1.132,4.8
		c0,5.95,4.637,10.752,10.459,11.153l0.767,0.071c1.369,0,2.665-0.29,3.87-0.729l23.017,23.017c-0.438,1.205-0.729,2.501-0.729,3.87
		l0.078,0.768c0.4,5.821,5.197,10.454,11.152,10.454c1.715,0,3.34-0.421,4.801-1.127l-7.452-7.453
		c-0.401-0.384-0.657-0.858-0.858-1.328c-0.483-1.333-0.219-2.883,0.858-3.947c0.73-0.726,1.679-1.09,2.646-1.09
		c0.438,0,0.876,0.092,1.296,0.256c0.475,0.183,0.945,0.438,1.328,0.839l7.47,7.447c0.689-1.459,1.104-3.084,1.104-4.818
		C59.871,43.271,55.252,38.47,49.412,38.068L49.412,38.068z"/>
</g>
</svg>
