<?xml version="1.0" encoding="utf-8"?>
<!-- Generator: Adobe Illustrator 16.0.0, SVG Export Plug-In . SVG Version: 6.00 Build 0)  -->
<!DOCTYPE svg PUBLIC "-//W3C//DTD SVG 1.1//EN" "http://www.w3.org/Graphics/SVG/1.1/DTD/svg11.dtd">
<svg version="1.1" id="Layer_1" xmlns="http://www.w3.org/2000/svg" xmlns:xlink="http://www.w3.org/1999/xlink" x="0px" y="0px"
	 width="169.46px" height="97.578px" viewBox="0 0 169.46 97.578" enable-background="new 0 0 169.46 97.578" xml:space="preserve">
<path fill="#5D5D5D" d="M113.07,62.842h-1.996v-0.688h4.766v0.688h-1.996v8.135h-0.772L113.07,62.842L113.07,62.842z M120.9,70.977
	h-4.056v-8.821h3.993v0.688h-3.233v3.173h2.94v0.688h-2.94v3.59h3.296V70.977L120.9,70.977z M126.095,62.154l-3.246,7.572
	l-0.025-7.572h-0.771v8.822h0.932l3.271-7.547l0.024,7.547h0.772v-8.822H126.095L126.095,62.154z M122.972,60.035h0.439
	c0.049,0.318,0.178,0.564,0.381,0.734c0.203,0.172,0.457,0.258,0.76,0.258c0.646,0,1.029-0.33,1.152-0.992h0.403
	c-0.049,0.498-0.219,0.881-0.509,1.146c-0.29,0.264-0.66,0.397-1.109,0.397c-0.433,0-0.781-0.136-1.048-0.405
	C123.177,60.905,123.021,60.525,122.972,60.035L122.972,60.035z M129.38,70.977h-0.772v-8.821h0.772v4.411l3.209-4.411h0.883
	l-2.609,3.565l2.744,5.256h-0.833l-2.401-4.631l-0.992,1.287V70.977L129.38,70.977z M136.977,71.186
	c-0.81,0-1.421-0.285-1.838-0.856c-0.498-0.687-0.748-1.944-0.748-3.774c0-1.746,0.245-2.978,0.735-3.688
	c0.426-0.612,1.041-0.918,1.851-0.918c1.078,0,1.813,0.506,2.205,1.52c0.262,0.67,0.394,1.699,0.394,3.088
	c0,0.932-0.046,1.662-0.137,2.192c-0.13,0.76-0.367,1.336-0.71,1.728C138.312,70.949,137.728,71.186,136.977,71.186L136.977,71.186z
	 M136.977,70.512c0.743,0,1.254-0.396,1.53-1.188c0.205-0.59,0.308-1.512,0.308-2.77c0-1.169-0.095-2.043-0.282-2.623
	c-0.285-0.873-0.805-1.311-1.556-1.311c-0.743,0-1.254,0.416-1.532,1.25c-0.195,0.579-0.294,1.474-0.294,2.684
	c0,1.567,0.173,2.643,0.515,3.223C135.958,70.268,136.396,70.512,136.977,70.512L136.977,70.512z M141.744,62.842v3.174h1.09
	c0.539,0,0.942-0.104,1.213-0.307c0.358-0.27,0.539-0.729,0.539-1.373c0-0.596-0.188-1.009-0.563-1.236
	c-0.278-0.172-0.698-0.258-1.263-0.258H141.744L141.744,62.842z M141.744,66.701v3.59h1.25c0.58,0,1.016-0.127,1.311-0.379
	c0.352-0.303,0.527-0.797,0.527-1.482c0-0.662-0.197-1.133-0.588-1.41c-0.304-0.213-0.721-0.317-1.25-0.317L141.744,66.701
	L141.744,66.701z M142.908,70.977h-1.925v-8.821h2.082c0.688,0,1.228,0.168,1.617,0.504c0.44,0.375,0.662,0.926,0.662,1.653
	c0,0.474-0.091,0.877-0.271,1.213c-0.203,0.367-0.514,0.634-0.931,0.795c0.489,0.132,0.854,0.384,1.091,0.755
	c0.236,0.372,0.354,0.827,0.354,1.366c0,0.996-0.301,1.699-0.906,2.107C144.259,70.834,143.667,70.977,142.908,70.977
	L142.908,70.977z M151.153,67.986h0.761c0,0.933-0.192,1.68-0.576,2.244c-0.434,0.637-1.07,0.955-1.912,0.955
	c-0.734,0-1.303-0.232-1.703-0.699c-0.334-0.392-0.566-0.983-0.697-1.775c-0.1-0.597-0.146-1.393-0.146-2.391
	c0-1.241,0.135-2.196,0.404-2.866c0.399-1.005,1.123-1.507,2.168-1.507c0.752,0,1.348,0.27,1.789,0.809
	c0.408,0.506,0.612,1.15,0.612,1.936h-0.772c0-0.571-0.125-1.045-0.379-1.42c-0.295-0.434-0.719-0.649-1.275-0.649
	c-0.555,0-0.979,0.257-1.272,0.771c-0.343,0.605-0.515,1.639-0.515,3.101c0,1.586,0.176,2.672,0.525,3.26
	c0.303,0.506,0.752,0.761,1.35,0.761c0.588,0,1.023-0.285,1.313-0.857C151.042,69.213,151.153,68.658,151.153,67.986L151.153,67.986
	z M154.229,70.977h-0.771v-8.821h0.771v4.411l3.21-4.411h0.883l-2.609,3.565l2.744,5.256h-0.834l-2.399-4.631l-0.993,1.287
	L154.229,70.977L154.229,70.977z M160.319,67.583h2.353l-1.164-4.46L160.319,67.583L160.319,67.583z M161.054,62.154h0.883
	l2.365,8.822h-0.773l-0.697-2.721h-2.672l-0.723,2.721h-0.734L161.054,62.154L161.054,62.154z M169.46,70.977h-0.76v-3.858H167.5
	l-2.035,3.858h-0.906l2.096-3.933c-0.555-0.122-0.982-0.386-1.279-0.79c-0.299-0.404-0.446-0.938-0.446-1.599
	c0-0.858,0.228-1.499,0.687-1.925c0.407-0.383,0.975-0.576,1.702-0.576h2.146v8.822H169.46z M168.701,66.432v-3.59h-1.166
	c-1.232,0-1.85,0.596-1.85,1.788c0,0.661,0.179,1.136,0.539,1.422c0.318,0.253,0.813,0.38,1.482,0.38H168.701L168.701,66.432z
	 M65.983,80.779h2.353l-1.164-4.461L65.983,80.779L65.983,80.779z M66.718,75.352h0.883l2.365,8.822h-0.772l-0.698-2.721h-2.671
	l-0.723,2.721h-0.735L66.718,75.352L66.718,75.352z M75,75.352h-4.03v8.822h0.76v-8.137H75V75.352L75,75.352z M76.974,84.174h-0.759
	v-8.822h1.997c0.76,0,1.352,0.168,1.776,0.502c0.507,0.4,0.76,1.025,0.76,1.875c0,0.802-0.21,1.412-0.631,1.832
	c-0.421,0.42-1.031,0.631-1.832,0.631h-1.311V84.174L76.974,84.174z M76.974,76.037v3.468h0.993c0.678,0,1.172-0.114,1.483-0.343
	c0.359-0.262,0.539-0.723,0.539-1.385c0-0.621-0.159-1.066-0.478-1.336c-0.318-0.271-0.792-0.404-1.421-0.404H76.974L76.974,76.037z
	 M84.473,84.382c-0.809,0-1.421-0.286-1.838-0.856c-0.498-0.688-0.748-1.944-0.748-3.774c0-1.748,0.245-2.978,0.735-3.688
	c0.425-0.612,1.042-0.92,1.85-0.92c1.078,0,1.813,0.508,2.206,1.521c0.261,0.67,0.392,1.698,0.392,3.088
	c0,0.933-0.045,1.662-0.135,2.192c-0.13,0.761-0.367,1.336-0.71,1.729C85.809,84.145,85.224,84.382,84.473,84.382L84.473,84.382z
	 M84.473,83.708c0.744,0,1.255-0.396,1.532-1.188c0.203-0.588,0.306-1.511,0.306-2.77c0-1.168-0.095-2.042-0.282-2.622
	c-0.285-0.874-0.804-1.312-1.556-1.312c-0.743,0-1.254,0.418-1.532,1.25c-0.196,0.58-0.294,1.475-0.294,2.684
	c0,1.568,0.172,2.643,0.515,3.223C83.456,83.463,83.893,83.708,84.473,83.708L84.473,83.708z M89.313,84.174h-0.772v-8.822h4.951
	v8.822H92.72v-8.137h-3.406L89.313,84.174L89.313,84.174z M95.941,84.174h-0.76v-8.822h1.997c0.76,0,1.353,0.168,1.776,0.502
	c0.506,0.4,0.76,1.025,0.76,1.875c0,0.802-0.211,1.412-0.631,1.832c-0.422,0.42-1.03,0.631-1.832,0.631H95.94L95.941,84.174
	L95.941,84.174z M95.941,76.037v3.468h0.993c0.678,0,1.172-0.114,1.481-0.343c0.359-0.262,0.539-0.723,0.539-1.385
	c0-0.621-0.158-1.066-0.479-1.336c-0.318-0.271-0.791-0.404-1.421-0.404H95.941L95.941,76.037z M103.44,84.382
	c-0.81,0-1.421-0.286-1.838-0.856c-0.498-0.688-0.748-1.944-0.748-3.774c0-1.748,0.246-2.978,0.735-3.688
	c0.425-0.612,1.041-0.92,1.851-0.92c1.078,0,1.813,0.508,2.205,1.521c0.263,0.67,0.394,1.698,0.394,3.088
	c0,0.933-0.045,1.662-0.136,2.192c-0.131,0.761-0.366,1.336-0.711,1.729C104.776,84.145,104.192,84.382,103.44,84.382L103.44,84.382
	z M103.44,83.708c0.744,0,1.254-0.396,1.531-1.188c0.204-0.588,0.307-1.511,0.307-2.77c0-1.168-0.094-2.042-0.28-2.622
	c-0.287-0.874-0.806-1.312-1.558-1.312c-0.743,0-1.254,0.418-1.53,1.25c-0.197,0.58-0.296,1.475-0.296,2.684
	c0,1.568,0.173,2.643,0.517,3.223C102.423,83.463,102.86,83.708,103.44,83.708L103.44,83.708z M108.343,84.174h-0.76v-8.822h1.272
	l2.097,7.694l2.168-7.694h1.236v8.822h-0.759v-8.063l-2.206,8.063h-0.821l-2.204-8.063L108.343,84.174L108.343,84.174z
	 M116.11,75.352h0.761v3.859h1.311c0.793,0,1.4,0.213,1.826,0.637c0.424,0.426,0.637,1.034,0.637,1.826
	c0,0.857-0.229,1.499-0.686,1.924c-0.41,0.385-0.978,0.576-1.703,0.576h-2.146V75.352L116.11,75.352z M116.871,79.896v3.59h1.162
	c1.233,0,1.852-0.596,1.852-1.788c0-0.662-0.18-1.136-0.539-1.423c-0.318-0.252-0.813-0.379-1.482-0.379H116.871L116.871,79.896z
	 M122.567,84.174h-0.771v-8.822h0.771V84.174L122.567,84.174z M125.104,75.352h-0.761v8.822h8.137v-8.822h-0.76v8.137h-2.928v-8.137
	h-0.76v8.137h-2.93L125.104,75.352L125.104,75.352z M134.919,75.352h4.459v8.822h-0.76v-8.137h-2.94v4.044
	c0,1.43-0.106,2.463-0.318,3.101c-0.245,0.719-0.649,1.077-1.214,1.077c-0.146,0-0.268-0.004-0.359-0.012
	c-0.096-0.009-0.195-0.028-0.302-0.062v-0.675c0.123,0.017,0.237,0.03,0.343,0.044c0.106,0.012,0.176,0.019,0.209,0.019
	c0.318,0,0.545-0.312,0.68-0.933c0.136-0.619,0.203-1.56,0.203-2.816V75.352L134.919,75.352z M145.087,84.174h-4.055v-8.822h3.993
	v0.687h-3.233v3.174h2.939v0.687h-2.939v3.591h3.295V84.174L145.087,84.174z M147.037,84.174h-0.771v-8.822h0.771v3.75h3.405v-3.75
	h0.772v8.822h-0.772v-4.387h-3.405V84.174L147.037,84.174z M153.58,84.174h-0.771v-8.822h0.771v3.75h3.405v-3.75h0.772v8.822h-0.772
	v-4.387h-3.405V84.174L153.58,84.174z M160.319,80.779h2.353l-1.164-4.461L160.319,80.779L160.319,80.779z M161.054,75.352h0.883
	l2.365,8.822h-0.773l-0.697-2.721h-2.672l-0.723,2.721h-0.734L161.054,75.352L161.054,75.352z M169.46,84.174h-0.76v-3.859H167.5
	l-2.035,3.859h-0.906l2.096-3.934c-0.555-0.122-0.982-0.387-1.279-0.79c-0.299-0.404-0.446-0.938-0.446-1.599
	c0-0.857,0.228-1.5,0.687-1.925c0.407-0.385,0.975-0.575,1.702-0.575h2.146v8.822H169.46z M168.701,79.628v-3.591h-1.166
	c-1.232,0-1.85,0.597-1.85,1.789c0,0.662,0.179,1.136,0.539,1.422c0.318,0.253,0.813,0.38,1.482,0.38H168.701L168.701,79.628z
	 M119.553,97.369h-0.772v-8.821h0.772v4.41l3.21-4.41h0.883l-2.609,3.565l2.744,5.256h-0.834l-2.4-4.631l-0.992,1.285
	L119.553,97.369L119.553,97.369z M127.149,97.578c-0.81,0-1.421-0.286-1.838-0.857c-0.498-0.687-0.748-1.943-0.748-3.773
	c0-1.748,0.246-2.979,0.735-3.688c0.426-0.612,1.041-0.919,1.851-0.919c1.078,0,1.813,0.508,2.206,1.52
	c0.262,0.67,0.393,1.701,0.393,3.089c0,0.932-0.045,1.661-0.136,2.192c-0.131,0.76-0.366,1.336-0.711,1.729
	C128.485,97.341,127.901,97.578,127.149,97.578L127.149,97.578z M127.149,96.904c0.744,0,1.254-0.396,1.531-1.188
	c0.204-0.589,0.307-1.512,0.307-2.771c0-1.168-0.094-2.041-0.28-2.621c-0.287-0.874-0.806-1.311-1.558-1.311
	c-0.741,0-1.254,0.416-1.53,1.248c-0.197,0.58-0.295,1.475-0.295,2.684c0,1.568,0.172,2.644,0.516,3.224
	C126.132,96.659,126.569,96.904,127.149,96.904L127.149,96.904z M132.052,97.369h-0.76v-8.821h1.272l2.097,7.694l2.168-7.694h1.237
	v8.821h-0.76v-8.063l-2.205,8.063h-0.822l-2.204-8.063L132.052,97.369L132.052,97.369z M140.494,97.369h-0.771v-8.821h4.949v8.821
	H143.9v-8.137h-3.406V97.369L140.494,97.369z M147.232,93.977h2.354l-1.164-4.461L147.232,93.977L147.232,93.977z M147.968,88.548
	h0.883l2.363,8.821h-0.771l-0.697-2.721h-2.672l-0.723,2.721h-0.734L147.968,88.548L147.968,88.548z M152.917,97.369h-0.771v-8.821
	h0.771v3.749h3.406v-3.749h0.772v8.821h-0.772v-4.387h-3.406V97.369L152.917,97.369z M162.708,88.548l-3.248,7.571l-0.023-7.571
	h-0.771v8.821h0.932l3.271-7.547l0.023,7.547h0.771v-8.821H162.708L162.708,88.548z M169.46,97.369h-0.76v-3.858H167.5l-2.035,3.858
	h-0.906l2.096-3.934c-0.555-0.121-0.982-0.387-1.279-0.789c-0.299-0.405-0.446-0.938-0.446-1.601c0-0.856,0.228-1.498,0.687-1.924
	c0.407-0.384,0.975-0.575,1.702-0.575h2.146v8.822H169.46z M168.701,92.824v-3.592h-1.166c-1.232,0-1.85,0.598-1.85,1.789
	c0,0.662,0.179,1.137,0.539,1.422c0.318,0.254,0.813,0.381,1.482,0.381H168.701z"/>
<g>
	<path fill="#434444" d="M53.439,67.387c0-0.535,0.113-1.072,0.337-1.563l0.009-0.02l0.009-0.021
		c0.173-0.354,0.411-0.681,0.71-0.979c0.455-0.455,0.972-0.765,1.55-0.929l0,0c0.324-0.092,0.667-0.138,1.031-0.138
		c1.01,0,1.795-0.038,2.356-0.112s0.991-0.262,1.291-0.562c0.299-0.299,0.486-0.729,0.561-1.291
		c0.075-0.561,0.112-1.347,0.112-2.356s0.355-1.869,1.066-2.58c1.42-1.42,3.742-1.42,5.162,0c0.71,0.711,1.066,1.57,1.066,2.58
		c0,1.011-0.355,1.871-1.066,2.582s-1.571,1.065-2.582,1.065c-1.01,0-1.795,0.037-2.356,0.111c-0.562,0.075-0.992,0.262-1.291,0.563
		c-0.299,0.299-0.486,0.729-0.561,1.289c-0.073,0.55-0.11,1.312-0.112,2.287v0.07c0,1.363-0.712,2.495-1.814,3.166
		c-0.559,0.316-1.181,0.479-1.833,0.48c-1.01,0-1.796,0.037-2.356,0.111c-0.561,0.075-0.991,0.264-1.291,0.563
		s-0.486,0.729-0.562,1.291c-0.074,0.561-0.112,1.346-0.112,2.355c0,1.008-0.355,1.871-1.065,2.582
		c-0.711,0.709-1.571,1.064-2.581,1.064c-1.01,0-1.87-0.355-2.581-1.064c-0.711-0.711-1.066-1.572-1.066-2.582
		c0-1.011,0.355-1.871,1.066-2.582c0.711-0.709,1.571-1.064,2.581-1.064c1.01,0,1.795-0.037,2.356-0.112s0.991-0.262,1.29-0.562
		c0.3-0.299,0.487-0.729,0.562-1.29C53.434,68.914,53.439,68.223,53.439,67.387z"/>
	<path fill="#FCB741" stroke="#434444" stroke-width="0.25" stroke-miterlimit="10" d="M53.439,51.451
		c0-1.01,0.355-1.87,1.066-2.581s1.571-1.066,2.581-1.066c1.01,0,1.87,0.355,2.581,1.066c0.711,0.71,1.066,1.571,1.066,2.581
		s-0.355,1.871-1.066,2.581c-0.711,0.711-1.571,1.065-2.581,1.065c-1.01,0-1.796,0.037-2.356,0.112
		c-0.561,0.074-0.991,0.263-1.291,0.562c-0.299,0.299-0.486,0.729-0.562,1.291c-0.074,0.561-0.112,1.347-0.112,2.354
		c0,1.011-0.355,1.871-1.065,2.582c-0.711,0.711-1.571,1.065-2.581,1.065c-1.01,0-1.87-0.354-2.581-1.065s-1.066-1.571-1.066-2.582
		c0-1.009,0.355-1.869,1.066-2.58s1.571-1.065,2.581-1.065c1.01,0,1.795-0.037,2.356-0.111c0.561-0.075,0.991-0.262,1.29-0.563
		c0.3-0.3,0.487-0.729,0.562-1.289C53.402,53.247,53.439,52.461,53.439,51.451L53.439,51.451z M53.439,59.418
		c0,1.012-0.038,1.797-0.112,2.357c-0.075,0.562-0.262,0.99-0.562,1.291c-0.299,0.299-0.729,0.485-1.29,0.561
		s-1.347,0.112-2.356,0.112c-1.009,0-1.87,0.354-2.581,1.065s-1.066,1.571-1.066,2.581c0,1.011,0.355,1.87,1.066,2.58
		c0.711,0.711,1.571,1.066,2.581,1.066c1.01,0,1.87-0.355,2.581-1.066c0.71-0.71,1.065-1.569,1.065-2.58
		c0-1.01,0.038-1.796,0.112-2.356c0.075-0.562,0.262-0.99,0.562-1.29c0.299-0.3,0.729-0.486,1.291-0.563
		c0.561-0.073,1.347-0.11,2.356-0.11c1.01,0,1.87-0.355,2.581-1.066s1.066-1.57,1.066-2.582c0-1.009-0.355-1.869-1.066-2.58
		s-1.571-1.066-2.581-1.066c-1.01,0-1.87,0.355-2.581,1.066S53.439,58.409,53.439,59.418L53.439,59.418z M45.528,83.32
		c0-1.01,0.355-1.869,1.066-2.58c0.711-0.71,1.571-1.066,2.581-1.066c1.01,0,1.87,0.356,2.581,1.066
		c0.71,0.711,1.065,1.57,1.065,2.58c0,1.011-0.355,1.871-1.065,2.582c-0.711,0.711-1.571,1.064-2.581,1.064L45.528,83.32z
		 M45.528,83.32c0,1.011,0.355,1.871,1.066,2.582c0.711,0.711,1.571,1.064,2.581,1.064L45.528,83.32L45.528,83.32z M44.798,35.516
		c0-1.01-0.355-1.87-1.066-2.581c-0.711-0.71-1.571-1.066-2.581-1.066c-1.01,0-1.87,0.355-2.582,1.066
		c-0.71,0.711-1.066,1.571-1.066,2.581c0,1.01,0.355,1.871,1.066,2.582c0.711,0.71,1.571,1.066,2.582,1.066
		c1.01,0,1.795,0.037,2.356,0.112c0.561,0.075,0.991,0.262,1.291,0.561c0.3,0.299,0.486,0.729,0.561,1.291
		c0.075,0.561,0.112,1.347,0.112,2.356c0,1.01,0.355,1.871,1.066,2.581c0.711,0.711,1.571,1.066,2.581,1.066
		c1.01,0,1.87-0.355,2.581-1.066c0.711-0.71,1.065-1.571,1.065-2.581c0-1.01-0.354-1.87-1.065-2.581
		c-0.711-0.711-1.571-1.066-2.581-1.066c-1.01,0-1.795-0.038-2.356-0.112c-1.084-0.145-1.708-0.768-1.852-1.851
		C44.835,37.312,44.798,36.526,44.798,35.516L44.798,35.516z M44.798,43.484c0-1.01-0.355-1.87-1.066-2.581
		c-0.711-0.711-1.571-1.066-2.581-1.066c-1.01,0-1.87,0.355-2.582,1.066c-0.71,0.711-1.066,1.571-1.066,2.581
		c0,1.01,0.355,1.871,1.066,2.581c0.711,0.711,1.571,1.066,2.582,1.066c1.01,0,1.795,0.038,2.356,0.112
		c0.561,0.074,0.991,0.262,1.291,0.561c0.3,0.299,0.486,0.729,0.561,1.291c0.075,0.562,0.112,1.346,0.112,2.356
		c0,1.009,0.355,1.869,1.066,2.581c0.711,0.711,1.571,1.065,2.581,1.065c1.01,0,1.87-0.354,2.581-1.065
		c0.711-0.712,1.065-1.571,1.065-2.581s-0.354-1.87-1.065-2.581c-0.711-0.71-1.571-1.066-2.581-1.066
		c-1.01,0-1.795-0.037-2.356-0.112c-0.561-0.074-0.991-0.262-1.291-0.561c-0.299-0.299-0.486-0.729-0.561-1.29
		C44.835,45.279,44.798,44.494,44.798,43.484L44.798,43.484z M53.439,11.614c0-1.01,0.355-1.87,1.066-2.581
		c0.711-0.71,1.571-1.066,2.581-1.066c1.01,0,1.87,0.355,2.581,1.066s1.066,1.571,1.066,2.581c0,1.01-0.355,1.871-1.066,2.581
		c-0.711,0.711-1.571,1.066-2.581,1.066c-1.01,0-1.796,0.037-2.356,0.112c-0.561,0.074-0.991,0.262-1.291,0.561
		c-0.299,0.299-0.486,0.729-0.562,1.291c-0.074,0.561-0.112,1.346-0.112,2.356c0,1.01-0.355,1.87-1.065,2.581
		c-0.711,0.71-1.571,1.066-2.581,1.066c-1.01,0-1.87-0.355-2.581-1.066s-1.066-1.571-1.066-2.581c0-1.01,0.355-1.871,1.066-2.581
		c0.711-0.711,1.571-1.066,2.581-1.066c1.01,0,1.795-0.038,2.356-0.112c1.084-0.146,1.708-0.768,1.852-1.853
		C53.401,13.41,53.439,12.624,53.439,11.614L53.439,11.614z M53.439,19.582c0,1.01-0.038,1.795-0.112,2.356
		c-0.074,0.561-0.262,0.991-0.562,1.291c-0.299,0.299-0.729,0.487-1.29,0.561c-0.561,0.075-1.347,0.112-2.356,0.112
		c-1.009,0-1.87,0.355-2.581,1.066c-0.711,0.711-1.066,1.571-1.066,2.581c0,1.01,0.355,1.87,1.066,2.581s1.571,1.066,2.581,1.066
		c1.01,0,1.87-0.355,2.581-1.066c0.71-0.711,1.065-1.571,1.065-2.581c0-1.01,0.038-1.795,0.112-2.357
		c0.075-0.561,0.262-0.991,0.562-1.29c0.299-0.299,0.729-0.486,1.291-0.562c0.561-0.074,1.347-0.112,2.356-0.112
		c1.01,0,1.87-0.355,2.581-1.066s1.066-1.571,1.066-2.581c0-1.01-0.355-1.871-1.066-2.581c-0.711-0.711-1.571-1.066-2.581-1.066
		c-1.01,0-1.87,0.355-2.581,1.066S53.439,18.572,53.439,19.582L53.439,19.582z M44.798,3.646c0-1.01-0.355-1.87-1.066-2.581
		C43.021,0.355,42.161,0,41.151,0c-1.01,0-1.87,0.355-2.582,1.066c-0.71,0.711-1.066,1.571-1.066,2.581
		c0,1.01,0.355,1.871,1.066,2.582c0.711,0.71,1.571,1.066,2.582,1.066c1.01,0,1.795,0.037,2.356,0.112
		c0.561,0.075,0.991,0.262,1.291,0.561c0.3,0.299,0.486,0.729,0.561,1.291c0.075,0.561,0.112,1.347,0.112,2.356
		c0,1.009,0.355,1.871,1.066,2.581c0.711,0.711,1.571,1.066,2.581,1.066c1.01,0,1.87-0.355,2.581-1.066
		c0.711-0.71,1.065-1.571,1.065-2.581c0-1.01-0.354-1.87-1.065-2.581c-0.711-0.711-1.571-1.066-2.581-1.066
		c-1.01,0-1.795-0.038-2.356-0.112c-1.084-0.145-1.708-0.768-1.852-1.852C44.835,5.442,44.798,4.657,44.798,3.646z M44.798,3.646
		c0-1.01-0.355-1.87-1.066-2.581C43.021,0.355,42.161,0,41.151,0c-1.01,0-1.87,0.355-2.582,1.066
		c-0.71,0.711-1.066,1.571-1.066,2.581c0,1.01,0.355,1.871,1.066,2.582c0.711,0.71,1.571,1.066,2.582,1.066
		c1.01,0,1.795,0.037,2.356,0.112c0.561,0.075,0.991,0.262,1.291,0.561c0.3,0.299,0.486,0.729,0.561,1.291
		c0.075,0.561,0.112,1.347,0.112,2.356c0,1.009,0.355,1.871,1.066,2.581c0.711,0.711,1.571,1.066,2.581,1.066
		c1.01,0,1.87-0.355,2.581-1.066c0.711-0.71,1.065-1.571,1.065-2.581c0-1.01-0.354-1.87-1.065-2.581
		c-0.711-0.711-1.571-1.066-2.581-1.066c-1.01,0-1.795-0.038-2.356-0.112c-1.084-0.145-1.708-0.768-1.852-1.852
		C44.835,5.442,44.798,4.657,44.798,3.646L44.798,3.646z M44.798,27.549c0,1.009,0.037,1.796,0.112,2.357
		c0.144,1.084,0.768,1.707,1.852,1.852c0.561,0.075,1.347,0.112,2.356,0.112c1.009,0,1.87,0.354,2.581,1.066
		c0.711,0.71,1.065,1.571,1.065,2.581c0,1.01-0.354,1.871-1.065,2.581c-0.711,0.711-1.571,1.066-2.581,1.066
		c-1.01,0-1.87-0.355-2.581-1.066c-0.71-0.71-1.066-1.571-1.066-2.581c0-1.01-0.037-1.795-0.112-2.356
		c-0.075-0.561-0.261-0.991-0.561-1.29c-0.299-0.3-0.729-0.487-1.291-0.562c-0.562-0.075-1.347-0.112-2.356-0.112
		c-1.01,0-1.87-0.356-2.582-1.066c-0.71-0.71-1.066-1.572-1.066-2.581c0-1.01,0.355-1.87,1.066-2.581
		c0.711-0.711,1.571-1.066,2.582-1.066c1.01,0,1.87,0.355,2.581,1.066C44.443,25.679,44.798,26.539,44.798,27.549z"/>
	<path fill="#434444" d="M7.494,84.143V58.132h3.726v-3.728H0v3.728h3.768v22.367c0,1.062,0.363,1.935,1.088,2.617
		S6.461,84.143,7.494,84.143L7.494,84.143z M14.905,59.682l0.042,24.492h3.726c0-2.004,0-3.74,0-5.744v-0.453
		c0-0.896,0.648-1.646,1.5-1.809c0.11-0.025,0.196-0.033,0.242-0.033l0.033,0.002c0.022-0.001,0.045-0.002,0.067-0.002l0,0
		c1.013,0,1.842,0.829,1.842,1.842v0.528v5.669h3.727V59.682c0-0.754-0.147-1.473-0.44-2.156c-0.293-0.685-0.691-1.276-1.193-1.779
		s-1.096-0.898-1.779-1.191c-0.684-0.295-1.403-0.44-2.156-0.44s-1.472,0.146-2.156,0.44c-0.684,0.293-1.277,0.688-1.779,1.191
		s-0.907,1.096-1.214,1.779C15.059,58.209,14.905,58.928,14.905,59.682L14.905,59.682z M18.673,69.867c0-3.168,0-6.337,0-9.506
		v-0.387c0-0.388,0.12-0.746,0.325-1.043c0.319-0.527,0.803-0.697,1.136-0.761c0.098-0.021,0.199-0.032,0.302-0.038l0.018-0.002
		c0,0,0.955-0.074,1.512,0.71c0.245,0.313,0.392,0.706,0.392,1.134v0.34c0,3.176,0,6.352,0,9.526v0.726
		c0,1.014-0.829,1.842-1.842,1.842l0,0h-0.032h-0.035c-0.171-0.002-0.444-0.035-0.726-0.18c-0.62-0.297-1.05-0.933-1.05-1.662
		V69.867L18.673,69.867z M41.617,54.405h-3.685v7.452c0,1.033-0.188,1.904-0.565,2.617c-0.377,0.711-0.803,1.066-1.277,1.066
		l-1.884,0.042V54.405h-3.727v29.769h3.727V69.311h1.884c0.475,0,0.9,0.355,1.277,1.067c0.376,0.712,0.565,1.584,0.565,2.616v11.18
		h3.685v-11.18c0-0.753-0.14-1.473-0.419-2.155c-0.279-0.685-0.458-1.125-0.892-1.78c-1.125-1.701-0.325-2.578,0.046-3.324
		c0.313-0.629,0.566-0.986,0.845-1.656c0.279-0.67,0.419-1.396,0.419-2.178L41.617,54.405L41.617,54.405z"/>
	<circle fill="#FFFFFF" cx="49.156" cy="75.393" r="1.955"/>
	<path fill="#A7A9AC" d="M49.156,73.607c0.986,0,1.787,0.8,1.787,1.785s-0.8,1.787-1.787,1.787c-0.987,0-1.787-0.802-1.787-1.787
		S48.169,73.607,49.156,73.607L49.156,73.607z M49.156,73.771c-0.895,0-1.621,0.727-1.621,1.621c0,0.896,0.726,1.621,1.621,1.621
		c0.895,0,1.621-0.727,1.621-1.621C50.776,74.498,50.051,73.771,49.156,73.771z"/>
	<circle fill="#FFFFFF" cx="57.037" cy="67.458" r="1.955"/>
	<path fill="#A7A9AC" d="M57.037,65.672c0.986,0,1.787,0.801,1.787,1.786s-0.8,1.786-1.787,1.786c-0.986,0-1.786-0.801-1.786-1.786
		S56.051,65.672,57.037,65.672L57.037,65.672z M57.037,65.838c-0.895,0-1.62,0.727-1.62,1.62s0.726,1.62,1.62,1.62
		c0.895,0,1.621-0.727,1.621-1.62S57.932,65.838,57.037,65.838z"/>
	<circle fill="#FFFFFF" cx="64.991" cy="59.474" r="1.954"/>
	<path fill="#A7A9AC" d="M64.991,57.854c0.895,0,1.621,0.726,1.621,1.619c0,0.896-0.726,1.621-1.621,1.621s-1.621-0.726-1.621-1.621
		C63.37,58.578,64.096,57.854,64.991,57.854L64.991,57.854z M64.991,57.688c-0.986,0-1.787,0.801-1.787,1.785
		c0,0.987,0.8,1.787,1.787,1.787c0.987,0,1.786-0.8,1.786-1.787C66.777,58.486,65.977,57.688,64.991,57.688z"/>
</g>
<circle fill="#FCB741" stroke="#434444" stroke-width="0.25" stroke-miterlimit="10" cx="49.118" cy="83.217" r="3.75"/>
</svg>
